M48
; DRILL file {KiCad 7.0.2} date Sat Jul 29 23:32:52 2023
; FORMAT={-:-/ absolute / inch / decimal}
; #@! TF.CreationDate,2023-07-29T23:32:52+01:00
; #@! TF.GenerationSoftware,Kicad,Pcbnew,7.0.2
; #@! TF.FileFunction,Plated,1,2,PTH
FMAT,2
INCH
; #@! TA.AperFunction,Plated,PTH,ComponentDrill
T1C0.0197
; #@! TA.AperFunction,Plated,PTH,ComponentDrill
T2C0.0300
; #@! TA.AperFunction,Plated,PTH,ViaDrill
T3C0.0315
; #@! TA.AperFunction,Plated,PTH,ComponentDrill
T4C0.0315
; #@! TA.AperFunction,Plated,PTH,ComponentDrill
T5C0.0335
; #@! TA.AperFunction,Plated,PTH,ComponentDrill
T6C0.0394
; #@! TA.AperFunction,Plated,PTH,ComponentDrill
T7C0.0472
; #@! TA.AperFunction,Plated,PTH,ComponentDrill
T8C0.0512
; #@! TA.AperFunction,Plated,PTH,ComponentDrill
T9C0.2362
; #@! TA.AperFunction,Plated,PTH,ComponentDrill
T10C0.2756
%
G90
G05
T2
X9.6898Y-5.2772
T3
X7.2622Y-7.8224
X7.5518Y-4.3156
X7.7752Y-4.0921
X8.5197Y-4.1732
X8.7894Y-5.7579
X9.0571Y-7.0252
X9.8031Y-6.9331
X9.9734Y-7.0738
X10.0197Y-4.7476
X10.063Y-5.598
X10.3016Y-5.7106
X10.3161Y-4.7449
X10.4681Y-5.5075
X10.6Y-5.4059
X10.8622Y-5.4051
X11.3484Y-4.7457
X11.3585Y-7.0055
X11.3622Y-5.5051
X11.9435Y-4.5758
X12.0315Y-5.9035
X12.2622Y-5.1051
T4
X6.472Y-5.4996
X6.4783Y-5.2437
X6.4783Y-5.3717
X6.4819Y-5.1157
X6.5203Y-4.6551
X6.5203Y-4.7551
X6.5203Y-4.8551
X6.5203Y-4.9551
X6.5228Y-5.6177
X6.8228Y-5.6177
X6.8301Y-4.6551
X6.8301Y-4.7551
X6.8301Y-4.8551
X6.8301Y-4.9551
X6.872Y-5.4996
X6.8783Y-5.2437
X6.8783Y-5.3717
X6.8819Y-5.1157
X7.4331Y-5.2437
X7.4331Y-5.3717
X7.4366Y-5.1059
X7.4366Y-5.4996
X7.4776Y-5.6177
X7.4848Y-4.6551
X7.4848Y-4.7551
X7.4848Y-4.8551
X7.4848Y-4.9551
X7.7776Y-5.6177
X7.7947Y-4.6551
X7.7947Y-4.7551
X7.7947Y-4.8551
X7.7947Y-4.9551
X7.8331Y-5.2437
X7.8331Y-5.3717
X7.8366Y-5.1059
X7.8366Y-5.4996
X8.3815Y-5.1059
X8.3878Y-5.2437
X8.3878Y-5.3717
X8.3913Y-5.4996
X8.4297Y-4.6551
X8.4297Y-4.7551
X8.4297Y-4.8551
X8.4297Y-4.9551
X8.4421Y-5.6177
X8.7228Y-7.3622
X8.7228Y-7.6622
X8.7396Y-4.6551
X8.7396Y-4.7551
X8.7396Y-4.8551
X8.7396Y-4.9551
X8.7421Y-5.6177
X8.7815Y-5.1059
X8.7878Y-5.2437
X8.7878Y-5.3717
X8.7913Y-5.4996
X8.9228Y-7.3622
X8.9228Y-7.6622
X9.1228Y-7.3622
X9.1228Y-7.6622
X9.287Y-5.972
X9.3819Y-5.8047
X9.4228Y-7.3622
X9.4228Y-7.6622
X9.4819Y-5.8047
X9.5819Y-5.8047
X9.5886Y-7.3157
X9.5886Y-7.6157
X9.6386Y-2.3882
X9.6386Y-2.4882
X9.687Y-5.972
X9.6898Y-5.1772
X9.7386Y-2.3882
X9.7386Y-2.4882
X9.7898Y-5.1772
X9.7898Y-5.2772
X9.8386Y-2.3882
X9.8386Y-2.4882
X9.8898Y-5.1772
X9.8898Y-5.2772
X9.9134Y-6.6807
X9.9134Y-6.7791
X9.9386Y-2.3882
X9.9386Y-2.4882
X9.9898Y-5.1772
X9.9898Y-5.2772
X10.0386Y-2.3882
X10.0386Y-2.4882
X10.0898Y-5.1772
X10.0898Y-5.2772
X10.1386Y-2.3882
X10.1386Y-2.4882
X10.1898Y-5.1772
X10.1898Y-5.2772
X10.2386Y-2.3882
X10.2386Y-2.4882
X10.2898Y-5.1772
X10.2898Y-5.2772
X10.3386Y-2.3882
X10.3386Y-2.4882
X10.3898Y-5.1772
X10.3898Y-5.2772
X10.4386Y-2.3882
X10.4386Y-2.4882
X10.4898Y-5.1772
X10.4898Y-5.2772
X10.5386Y-2.3882
X10.5386Y-2.4882
X10.6386Y-2.3882
X10.6386Y-2.4882
X10.64Y-5.8689
X10.64Y-6.1689
X10.6693Y-6.6234
X10.6693Y-6.7218
X10.6695Y-6.3953
X10.6695Y-6.4937
X10.7252Y-5.1772
X10.7252Y-5.2772
X10.7386Y-2.3882
X10.7386Y-2.4882
X10.7579Y-5.8091
X10.7579Y-6.2091
X10.8252Y-5.1772
X10.8252Y-5.2772
X10.8386Y-2.3882
X10.8386Y-2.4882
X10.8902Y-5.8087
X10.8902Y-6.2087
X10.9252Y-5.1772
X10.9252Y-5.2772
X10.9289Y-6.8579
X10.9386Y-2.3882
X10.9386Y-2.4882
X10.9844Y-6.4248
X10.9844Y-6.5248
X10.9844Y-6.6248
X10.9844Y-6.7248
X11.0238Y-5.8083
X11.0238Y-6.2083
X11.0252Y-5.1772
X11.0252Y-5.2772
X11.1252Y-5.1772
X11.1252Y-5.2772
X11.1594Y-5.8061
X11.1594Y-6.2061
X11.2252Y-5.1772
X11.2252Y-5.2772
X11.2844Y-6.4248
X11.2844Y-6.5248
X11.2844Y-6.6248
X11.2844Y-6.7248
X11.3252Y-5.1772
X11.3252Y-5.2772
X11.3289Y-6.8579
X11.4252Y-5.1772
X11.4252Y-5.2772
X11.4372Y-6.327
X11.4372Y-6.727
X11.5252Y-5.1772
X11.5252Y-5.2772
X11.5713Y-6.3303
X11.5713Y-6.7303
X11.6252Y-5.1772
X11.6252Y-5.2772
X11.7252Y-5.1772
X11.7252Y-5.2772
X11.8252Y-5.1772
X11.8252Y-5.2772
X11.9252Y-5.1772
X11.9252Y-5.2772
X12.0252Y-5.1772
X12.0252Y-5.2772
T5
X10.1496Y-6.1051
X10.1496Y-6.7051
X10.4496Y-6.1051
X10.4496Y-6.4051
X10.4496Y-6.6051
X10.4496Y-6.7051
T6
X5.2575Y-6.2169
X5.4898Y-7.5161
X5.726Y-7.5161
X5.9583Y-6.2169
X6.3507Y-6.6411
X6.3701Y-7.2024
X6.3701Y-7.4976
X6.5457Y-6.0511
X6.5709Y-7.2024
X6.5709Y-7.4976
X6.7457Y-6.0511
X6.7717Y-7.2024
X6.7717Y-7.4976
X6.9407Y-6.6411
X6.9724Y-7.2024
X6.9724Y-7.4976
X7.1732Y-7.2024
X7.1732Y-7.4976
X7.2956Y-6.6411
X7.374Y-7.2024
X7.374Y-7.4976
X7.4906Y-6.0511
X7.5748Y-7.2024
X7.5748Y-7.4976
X7.6906Y-6.0511
X7.7756Y-7.2024
X7.7756Y-7.4976
X7.8856Y-6.6411
X8.2404Y-6.6411
X8.4354Y-6.0511
X8.6354Y-6.0511
X8.8304Y-6.6411
T7
X9.4705Y-6.3677
X9.4705Y-6.8677
T8
X9.8622Y-6.2575
X9.8622Y-6.4543
T9
X6.3701Y-3.9642
X8.2697Y-7.4976
X8.5256Y-2.5469
X11.7138Y-5.9126
X12.0098Y-7.4583
X12.2165Y-2.4189
T10
X9.172Y-4.7067
X10.2902Y-2.9768
T1
G00X9.8246Y-7.376
M15
G01X9.8246Y-7.3484
M16
G05
G00X9.923Y-7.4429
M15
G01X9.923Y-7.4154
M16
G05
G00X10.0077Y-7.689
M15
G01X10.0352Y-7.689
M16
G05
G00X10.173Y-7.252
M15
G01X10.2006Y-7.252
M16
G05
G00X10.1986Y-7.565
M15
G01X10.1986Y-7.5374
M16
G05
G00X10.3679Y-7.376
M15
G01X10.3679Y-7.3484
M16
G05
G00X10.4663Y-7.4429
M15
G01X10.4663Y-7.4154
M16
G05
G00X10.551Y-7.689
M15
G01X10.5785Y-7.689
M16
G05
G00X10.7163Y-7.252
M15
G01X10.7439Y-7.252
M16
G05
G00X10.7419Y-7.565
M15
G01X10.7419Y-7.5374
M16
G05
G00X10.9016Y-7.376
M15
G01X10.9016Y-7.3484
M16
G05
G00X11.0Y-7.4429
M15
G01X11.0Y-7.4154
M16
G05
G00X11.0846Y-7.689
M15
G01X11.1122Y-7.689
M16
G05
G00X11.25Y-7.252
M15
G01X11.2776Y-7.252
M16
G05
G00X11.2756Y-7.565
M15
G01X11.2756Y-7.5374
M16
G05
T0
M30
