G04 #@! TF.GenerationSoftware,KiCad,Pcbnew,7.0.2*
G04 #@! TF.CreationDate,2023-07-29T23:32:47+01:00*
G04 #@! TF.ProjectId,ECS-Prototype,4543532d-5072-46f7-946f-747970652e6b,1.4*
G04 #@! TF.SameCoordinates,Original*
G04 #@! TF.FileFunction,Legend,Bot*
G04 #@! TF.FilePolarity,Positive*
%FSLAX46Y46*%
G04 Gerber Fmt 4.6, Leading zero omitted, Abs format (unit mm)*
G04 Created by KiCad (PCBNEW 7.0.2) date 2023-07-29 23:32:47*
%MOMM*%
%LPD*%
G01*
G04 APERTURE LIST*
%ADD10C,0.100000*%
G04 APERTURE END LIST*
D10*
X310790000Y-140940000D02*
X226290000Y-140940000D01*
X310790000Y-140940000D02*
X310770000Y-66540000D01*
X226290000Y-140940000D02*
X226290000Y-55840000D01*
X302290000Y-66740000D02*
X310770000Y-66740000D01*
X302290000Y-61140000D02*
X302290000Y-66740000D01*
X284490000Y-61140000D02*
X302290000Y-61140000D01*
X284490000Y-55740000D02*
X284490000Y-61140000D01*
X226290000Y-55740000D02*
X284490000Y-55740000D01*
X306565000Y-135640000D02*
X271165000Y-135640000D01*
X271165000Y-135640000D02*
X271165000Y-130050000D01*
X271165000Y-130050000D02*
X306565000Y-130050000D01*
X306565000Y-130050000D02*
X306565000Y-135640000D01*
X267790000Y-135630000D02*
X244490000Y-135630000D01*
X244490000Y-135630000D02*
X244490000Y-130040000D01*
X244490000Y-130040000D02*
X267790000Y-130040000D01*
X267790000Y-130040000D02*
X267790000Y-135630000D01*
X279470000Y-64240000D02*
X244070000Y-64240000D01*
X244070000Y-64240000D02*
X244070000Y-59240000D01*
X244070000Y-59240000D02*
X279470000Y-59240000D01*
X279470000Y-59240000D02*
X279470000Y-64240000D01*
M02*
