G04 #@! TF.GenerationSoftware,KiCad,Pcbnew,7.0.2*
G04 #@! TF.CreationDate,2023-07-29T23:32:47+01:00*
G04 #@! TF.ProjectId,ECS-Prototype,4543532d-5072-46f7-946f-747970652e6b,1.4*
G04 #@! TF.SameCoordinates,Original*
G04 #@! TF.FileFunction,Soldermask,Top*
G04 #@! TF.FilePolarity,Negative*
%FSLAX46Y46*%
G04 Gerber Fmt 4.6, Leading zero omitted, Abs format (unit mm)*
G04 Created by KiCad (PCBNEW 7.0.2) date 2023-07-29 23:32:47*
%MOMM*%
%LPD*%
G01*
G04 APERTURE LIST*
%ADD10C,1.600000*%
%ADD11C,9.000000*%
%ADD12C,2.000000*%
%ADD13O,3.016000X1.508000*%
%ADD14O,1.508000X3.016000*%
%ADD15R,2.000000X2.000000*%
%ADD16R,2.300000X2.300000*%
%ADD17O,2.300000X2.300000*%
%ADD18R,1.500000X1.500000*%
%ADD19C,1.500000*%
%ADD20O,1.600000X1.600000*%
%ADD21C,1.700000*%
%ADD22R,1.600000X1.600000*%
%ADD23C,2.600000*%
%ADD24R,1.308000X1.308000*%
%ADD25C,1.308000*%
%ADD26R,1.850000X1.850000*%
%ADD27C,1.850000*%
G04 APERTURE END LIST*
D10*
X305440000Y-134040000D03*
X302900000Y-134040000D03*
X300360000Y-134040000D03*
X297820000Y-134040000D03*
X295280000Y-134040000D03*
X292740000Y-134040000D03*
X290200000Y-134040000D03*
X287660000Y-134040000D03*
X285120000Y-134040000D03*
X282580000Y-134040000D03*
X280040000Y-134040000D03*
X277500000Y-134040000D03*
X274960000Y-134040000D03*
X272420000Y-134040000D03*
X305440000Y-131500000D03*
X302900000Y-131500000D03*
X300360000Y-131500000D03*
X297820000Y-131500000D03*
X295280000Y-131500000D03*
X292740000Y-131500000D03*
X290200000Y-131500000D03*
X287660000Y-131500000D03*
X285120000Y-131500000D03*
X282580000Y-131500000D03*
X280040000Y-131500000D03*
X277500000Y-131500000D03*
X274960000Y-131500000D03*
X272420000Y-131500000D03*
X266440000Y-134040000D03*
X263900000Y-134040000D03*
X261360000Y-134040000D03*
X258820000Y-134040000D03*
X256280000Y-134040000D03*
X253740000Y-134040000D03*
X251200000Y-134040000D03*
X248660000Y-134040000D03*
X246120000Y-134040000D03*
X266440000Y-131500000D03*
X263900000Y-131500000D03*
X261360000Y-131500000D03*
X258820000Y-131500000D03*
X256280000Y-131500000D03*
X253740000Y-131500000D03*
X251200000Y-131500000D03*
X248660000Y-131500000D03*
X246120000Y-131500000D03*
X277840000Y-63200000D03*
X275300000Y-63200000D03*
X272760000Y-63200000D03*
X270220000Y-63200000D03*
X267680000Y-63200000D03*
X265140000Y-63200000D03*
X262600000Y-63200000D03*
X260060000Y-63200000D03*
X257520000Y-63200000D03*
X254980000Y-63200000D03*
X252440000Y-63200000D03*
X249900000Y-63200000D03*
X247360000Y-63200000D03*
X244820000Y-63200000D03*
X277840000Y-60660000D03*
X275300000Y-60660000D03*
X272760000Y-60660000D03*
X270220000Y-60660000D03*
X267680000Y-60660000D03*
X265140000Y-60660000D03*
X262600000Y-60660000D03*
X260060000Y-60660000D03*
X257520000Y-60660000D03*
X254980000Y-60660000D03*
X252440000Y-60660000D03*
X249900000Y-60660000D03*
X247360000Y-60660000D03*
X244820000Y-60660000D03*
D11*
X161800000Y-100690000D03*
X216550000Y-64690000D03*
X305050000Y-189440000D03*
D12*
X197500000Y-182940000D03*
X197500000Y-190440000D03*
X192400000Y-182940000D03*
X192400000Y-190440000D03*
X187300000Y-182940000D03*
X187300000Y-190440000D03*
X182200000Y-182940000D03*
X182200000Y-190440000D03*
X177100000Y-182940000D03*
X177100000Y-190440000D03*
X172000000Y-182940000D03*
X172000000Y-190440000D03*
X166900000Y-182940000D03*
X166900000Y-190440000D03*
X161800000Y-182940000D03*
X161800000Y-190440000D03*
D13*
X254545000Y-195300000D03*
D14*
X259045000Y-191800000D03*
X249545000Y-187000000D03*
D13*
X258745000Y-184200000D03*
D14*
X252045000Y-188700000D03*
D13*
X268345000Y-195300000D03*
D14*
X272845000Y-191800000D03*
X263345000Y-187000000D03*
D13*
X272545000Y-184200000D03*
D14*
X265845000Y-188700000D03*
D13*
X281900000Y-195300000D03*
D14*
X286400000Y-191800000D03*
X276900000Y-187000000D03*
D13*
X286100000Y-184200000D03*
D14*
X279400000Y-188700000D03*
D15*
X243550000Y-193440000D03*
D12*
X243550000Y-185820000D03*
D16*
X240550000Y-174440000D03*
D17*
X240550000Y-161740000D03*
D18*
X238300000Y-147440000D03*
D19*
X240840000Y-147440000D03*
X243380000Y-147440000D03*
D10*
X283449999Y-147475001D03*
D20*
X283449999Y-157635001D03*
D10*
X280005000Y-157690000D03*
D20*
X280005000Y-147530000D03*
D12*
X246050000Y-151690000D03*
X235890000Y-151690000D03*
X293910000Y-170950000D03*
X293910000Y-160790000D03*
X290505000Y-160706000D03*
X290505000Y-170866000D03*
X287755000Y-174190000D03*
X277595000Y-174190000D03*
D10*
X276610000Y-147540000D03*
D20*
X276610000Y-157700000D03*
D10*
X273250000Y-157710000D03*
D20*
X273250000Y-147550000D03*
D12*
X161307000Y-168683000D03*
X176293000Y-168683000D03*
D21*
X166260000Y-153697000D03*
X171340000Y-153697000D03*
D12*
X209307000Y-168683000D03*
X224293000Y-168683000D03*
D21*
X214260000Y-153697000D03*
X219340000Y-153697000D03*
D12*
X185307000Y-168683000D03*
X200293000Y-168683000D03*
D21*
X190260000Y-153697000D03*
X195340000Y-153697000D03*
D11*
X297530000Y-150180000D03*
D22*
X279005000Y-163190000D03*
D20*
X279005000Y-165730000D03*
X279005000Y-168270000D03*
X279005000Y-170810000D03*
X286625000Y-170810000D03*
X286625000Y-168270000D03*
X286625000Y-165730000D03*
X286625000Y-163190000D03*
D22*
X270255000Y-156690000D03*
D20*
X270255000Y-149070000D03*
D23*
X250500000Y-158940000D03*
X250500000Y-163940000D03*
D22*
X271000000Y-168234888D03*
D10*
X271000000Y-170734888D03*
D22*
X251800000Y-169690000D03*
D10*
X251800000Y-172190000D03*
D22*
X271005000Y-162440000D03*
D10*
X271005000Y-164940000D03*
D22*
X197550000Y-142690000D03*
D20*
X189930000Y-142690000D03*
D10*
X188800000Y-133190000D03*
D20*
X198960000Y-133190000D03*
D22*
X222050000Y-142690000D03*
D20*
X214430000Y-142690000D03*
D10*
X223300000Y-139690000D03*
D20*
X213140000Y-139690000D03*
D10*
X213050000Y-136440000D03*
D20*
X223210000Y-136440000D03*
D10*
X213050000Y-133190000D03*
D20*
X223210000Y-133190000D03*
D10*
X174550000Y-139690000D03*
D20*
X164390000Y-139690000D03*
D10*
X199050000Y-129690000D03*
D20*
X188890000Y-129690000D03*
D10*
X164550000Y-136440000D03*
D20*
X174710000Y-136440000D03*
D10*
X199050000Y-139690000D03*
D20*
X188890000Y-139690000D03*
D10*
X223050000Y-129690000D03*
D20*
X212890000Y-129690000D03*
D10*
X188800000Y-136440000D03*
D20*
X198960000Y-136440000D03*
D10*
X174800000Y-129940000D03*
D20*
X164640000Y-129940000D03*
D10*
X164550000Y-133190000D03*
D20*
X174710000Y-133190000D03*
D22*
X173300000Y-142690000D03*
D20*
X165680000Y-142690000D03*
D24*
X214115000Y-118240000D03*
D25*
X214115000Y-120780000D03*
X214115000Y-123320000D03*
X214115000Y-125860000D03*
X221985000Y-125860000D03*
X221985000Y-123320000D03*
X221985000Y-120780000D03*
X221985000Y-118240000D03*
D24*
X190115000Y-118240000D03*
D25*
X190115000Y-120780000D03*
X190115000Y-123320000D03*
X190115000Y-125860000D03*
X197985000Y-125860000D03*
X197985000Y-123320000D03*
X197985000Y-120780000D03*
X197985000Y-118240000D03*
D24*
X165615000Y-118240000D03*
D25*
X165615000Y-120780000D03*
X165615000Y-123320000D03*
X165615000Y-125860000D03*
X173485000Y-125860000D03*
X173485000Y-123320000D03*
X173485000Y-120780000D03*
X173485000Y-118240000D03*
D12*
X239340000Y-194620000D03*
D21*
X231720000Y-194620000D03*
X226640000Y-194620000D03*
X221560000Y-194620000D03*
D12*
X221560000Y-187000000D03*
X226640000Y-187000000D03*
D21*
X231720000Y-187000000D03*
D12*
X239340000Y-187000000D03*
D26*
X257800000Y-155070000D03*
D27*
X257800000Y-170310000D03*
X265420000Y-155070000D03*
X265420000Y-162690000D03*
X265420000Y-167770000D03*
X265420000Y-170310000D03*
D11*
X210050000Y-190440000D03*
X310300000Y-61440000D03*
D15*
X139440000Y-190910000D03*
D12*
X145440000Y-190910000D03*
X133540000Y-157910000D03*
X151340000Y-157910000D03*
D11*
X232970000Y-119550000D03*
X261370000Y-75610000D03*
M02*
