G04 #@! TF.GenerationSoftware,KiCad,Pcbnew,7.0.5*
G04 #@! TF.CreationDate,2023-07-24T21:00:45+01:00*
G04 #@! TF.ProjectId,ECS-Prototype,4543532d-5072-46f7-946f-747970652e6b,1.4*
G04 #@! TF.SameCoordinates,Original*
G04 #@! TF.FileFunction,Legend,Top*
G04 #@! TF.FilePolarity,Positive*
%FSLAX46Y46*%
G04 Gerber Fmt 4.6, Leading zero omitted, Abs format (unit mm)*
G04 Created by KiCad (PCBNEW 7.0.5) date 2023-07-24 21:00:45*
%MOMM*%
%LPD*%
G01*
G04 APERTURE LIST*
%ADD10C,0.300000*%
%ADD11C,0.150000*%
%ADD12C,0.100000*%
%ADD13C,0.127000*%
%ADD14C,0.340000*%
%ADD15C,0.120000*%
%ADD16C,0.200000*%
G04 APERTURE END LIST*
D10*
X166466666Y-197599638D02*
X165514285Y-197599638D01*
X165514285Y-197599638D02*
X165514285Y-195599638D01*
X166942857Y-195599638D02*
X168180952Y-195599638D01*
X168180952Y-195599638D02*
X167514285Y-196361542D01*
X167514285Y-196361542D02*
X167800000Y-196361542D01*
X167800000Y-196361542D02*
X167990476Y-196456780D01*
X167990476Y-196456780D02*
X168085714Y-196552019D01*
X168085714Y-196552019D02*
X168180952Y-196742495D01*
X168180952Y-196742495D02*
X168180952Y-197218685D01*
X168180952Y-197218685D02*
X168085714Y-197409161D01*
X168085714Y-197409161D02*
X167990476Y-197504400D01*
X167990476Y-197504400D02*
X167800000Y-197599638D01*
X167800000Y-197599638D02*
X167228571Y-197599638D01*
X167228571Y-197599638D02*
X167038095Y-197504400D01*
X167038095Y-197504400D02*
X166942857Y-197409161D01*
X171466666Y-197599638D02*
X170514285Y-197599638D01*
X170514285Y-197599638D02*
X170514285Y-195599638D01*
X172038095Y-195790114D02*
X172133333Y-195694876D01*
X172133333Y-195694876D02*
X172323809Y-195599638D01*
X172323809Y-195599638D02*
X172800000Y-195599638D01*
X172800000Y-195599638D02*
X172990476Y-195694876D01*
X172990476Y-195694876D02*
X173085714Y-195790114D01*
X173085714Y-195790114D02*
X173180952Y-195980590D01*
X173180952Y-195980590D02*
X173180952Y-196171066D01*
X173180952Y-196171066D02*
X173085714Y-196456780D01*
X173085714Y-196456780D02*
X171942857Y-197599638D01*
X171942857Y-197599638D02*
X173180952Y-197599638D01*
X176966666Y-197599638D02*
X176014285Y-197599638D01*
X176014285Y-197599638D02*
X176014285Y-195599638D01*
X178680952Y-197599638D02*
X177538095Y-197599638D01*
X178109523Y-197599638D02*
X178109523Y-195599638D01*
X178109523Y-195599638D02*
X177919047Y-195885352D01*
X177919047Y-195885352D02*
X177728571Y-196075828D01*
X177728571Y-196075828D02*
X177538095Y-196171066D01*
X181966666Y-197409161D02*
X181871428Y-197504400D01*
X181871428Y-197504400D02*
X181585714Y-197599638D01*
X181585714Y-197599638D02*
X181395238Y-197599638D01*
X181395238Y-197599638D02*
X181109523Y-197504400D01*
X181109523Y-197504400D02*
X180919047Y-197313923D01*
X180919047Y-197313923D02*
X180823809Y-197123447D01*
X180823809Y-197123447D02*
X180728571Y-196742495D01*
X180728571Y-196742495D02*
X180728571Y-196456780D01*
X180728571Y-196456780D02*
X180823809Y-196075828D01*
X180823809Y-196075828D02*
X180919047Y-195885352D01*
X180919047Y-195885352D02*
X181109523Y-195694876D01*
X181109523Y-195694876D02*
X181395238Y-195599638D01*
X181395238Y-195599638D02*
X181585714Y-195599638D01*
X181585714Y-195599638D02*
X181871428Y-195694876D01*
X181871428Y-195694876D02*
X181966666Y-195790114D01*
X182823809Y-196266304D02*
X182823809Y-197599638D01*
X182823809Y-196456780D02*
X182919047Y-196361542D01*
X182919047Y-196361542D02*
X183109523Y-196266304D01*
X183109523Y-196266304D02*
X183395238Y-196266304D01*
X183395238Y-196266304D02*
X183585714Y-196361542D01*
X183585714Y-196361542D02*
X183680952Y-196552019D01*
X183680952Y-196552019D02*
X183680952Y-197599638D01*
X184347619Y-196266304D02*
X185109523Y-196266304D01*
X184633333Y-195599638D02*
X184633333Y-197313923D01*
X184633333Y-197313923D02*
X184728571Y-197504400D01*
X184728571Y-197504400D02*
X184919047Y-197599638D01*
X184919047Y-197599638D02*
X185109523Y-197599638D01*
X185776190Y-197409161D02*
X185871428Y-197504400D01*
X185871428Y-197504400D02*
X185776190Y-197599638D01*
X185776190Y-197599638D02*
X185680952Y-197504400D01*
X185680952Y-197504400D02*
X185776190Y-197409161D01*
X185776190Y-197409161D02*
X185776190Y-197599638D01*
X192419047Y-197409161D02*
X192323809Y-197504400D01*
X192323809Y-197504400D02*
X192038095Y-197599638D01*
X192038095Y-197599638D02*
X191847619Y-197599638D01*
X191847619Y-197599638D02*
X191561904Y-197504400D01*
X191561904Y-197504400D02*
X191371428Y-197313923D01*
X191371428Y-197313923D02*
X191276190Y-197123447D01*
X191276190Y-197123447D02*
X191180952Y-196742495D01*
X191180952Y-196742495D02*
X191180952Y-196456780D01*
X191180952Y-196456780D02*
X191276190Y-196075828D01*
X191276190Y-196075828D02*
X191371428Y-195885352D01*
X191371428Y-195885352D02*
X191561904Y-195694876D01*
X191561904Y-195694876D02*
X191847619Y-195599638D01*
X191847619Y-195599638D02*
X192038095Y-195599638D01*
X192038095Y-195599638D02*
X192323809Y-195694876D01*
X192323809Y-195694876D02*
X192419047Y-195790114D01*
X193276190Y-197599638D02*
X193276190Y-195599638D01*
X193276190Y-195599638D02*
X194038095Y-195599638D01*
X194038095Y-195599638D02*
X194228571Y-195694876D01*
X194228571Y-195694876D02*
X194323809Y-195790114D01*
X194323809Y-195790114D02*
X194419047Y-195980590D01*
X194419047Y-195980590D02*
X194419047Y-196266304D01*
X194419047Y-196266304D02*
X194323809Y-196456780D01*
X194323809Y-196456780D02*
X194228571Y-196552019D01*
X194228571Y-196552019D02*
X194038095Y-196647257D01*
X194038095Y-196647257D02*
X193276190Y-196647257D01*
X196226190Y-197579638D02*
X196226190Y-195579638D01*
X196226190Y-195579638D02*
X196988095Y-195579638D01*
X196988095Y-195579638D02*
X197178571Y-195674876D01*
X197178571Y-195674876D02*
X197273809Y-195770114D01*
X197273809Y-195770114D02*
X197369047Y-195960590D01*
X197369047Y-195960590D02*
X197369047Y-196246304D01*
X197369047Y-196246304D02*
X197273809Y-196436780D01*
X197273809Y-196436780D02*
X197178571Y-196532019D01*
X197178571Y-196532019D02*
X196988095Y-196627257D01*
X196988095Y-196627257D02*
X196226190Y-196627257D01*
X198226190Y-197579638D02*
X198226190Y-195579638D01*
X198226190Y-195579638D02*
X198988095Y-195579638D01*
X198988095Y-195579638D02*
X199178571Y-195674876D01*
X199178571Y-195674876D02*
X199273809Y-195770114D01*
X199273809Y-195770114D02*
X199369047Y-195960590D01*
X199369047Y-195960590D02*
X199369047Y-196246304D01*
X199369047Y-196246304D02*
X199273809Y-196436780D01*
X199273809Y-196436780D02*
X199178571Y-196532019D01*
X199178571Y-196532019D02*
X198988095Y-196627257D01*
X198988095Y-196627257D02*
X198226190Y-196627257D01*
X248692857Y-180799161D02*
X248597619Y-180894400D01*
X248597619Y-180894400D02*
X248311905Y-180989638D01*
X248311905Y-180989638D02*
X248121429Y-180989638D01*
X248121429Y-180989638D02*
X247835714Y-180894400D01*
X247835714Y-180894400D02*
X247645238Y-180703923D01*
X247645238Y-180703923D02*
X247550000Y-180513447D01*
X247550000Y-180513447D02*
X247454762Y-180132495D01*
X247454762Y-180132495D02*
X247454762Y-179846780D01*
X247454762Y-179846780D02*
X247550000Y-179465828D01*
X247550000Y-179465828D02*
X247645238Y-179275352D01*
X247645238Y-179275352D02*
X247835714Y-179084876D01*
X247835714Y-179084876D02*
X248121429Y-178989638D01*
X248121429Y-178989638D02*
X248311905Y-178989638D01*
X248311905Y-178989638D02*
X248597619Y-179084876D01*
X248597619Y-179084876D02*
X248692857Y-179180114D01*
X250407143Y-179656304D02*
X250407143Y-180989638D01*
X249550000Y-179656304D02*
X249550000Y-180703923D01*
X249550000Y-180703923D02*
X249645238Y-180894400D01*
X249645238Y-180894400D02*
X249835714Y-180989638D01*
X249835714Y-180989638D02*
X250121429Y-180989638D01*
X250121429Y-180989638D02*
X250311905Y-180894400D01*
X250311905Y-180894400D02*
X250407143Y-180799161D01*
X251359524Y-180989638D02*
X251359524Y-179656304D01*
X251359524Y-180037257D02*
X251454762Y-179846780D01*
X251454762Y-179846780D02*
X251550000Y-179751542D01*
X251550000Y-179751542D02*
X251740476Y-179656304D01*
X251740476Y-179656304D02*
X251930953Y-179656304D01*
X252597619Y-180989638D02*
X252597619Y-179656304D01*
X252597619Y-180037257D02*
X252692857Y-179846780D01*
X252692857Y-179846780D02*
X252788095Y-179751542D01*
X252788095Y-179751542D02*
X252978571Y-179656304D01*
X252978571Y-179656304D02*
X253169048Y-179656304D01*
X254597619Y-180894400D02*
X254407143Y-180989638D01*
X254407143Y-180989638D02*
X254026190Y-180989638D01*
X254026190Y-180989638D02*
X253835714Y-180894400D01*
X253835714Y-180894400D02*
X253740476Y-180703923D01*
X253740476Y-180703923D02*
X253740476Y-179942019D01*
X253740476Y-179942019D02*
X253835714Y-179751542D01*
X253835714Y-179751542D02*
X254026190Y-179656304D01*
X254026190Y-179656304D02*
X254407143Y-179656304D01*
X254407143Y-179656304D02*
X254597619Y-179751542D01*
X254597619Y-179751542D02*
X254692857Y-179942019D01*
X254692857Y-179942019D02*
X254692857Y-180132495D01*
X254692857Y-180132495D02*
X253740476Y-180322971D01*
X255550000Y-179656304D02*
X255550000Y-180989638D01*
X255550000Y-179846780D02*
X255645238Y-179751542D01*
X255645238Y-179751542D02*
X255835714Y-179656304D01*
X255835714Y-179656304D02*
X256121429Y-179656304D01*
X256121429Y-179656304D02*
X256311905Y-179751542D01*
X256311905Y-179751542D02*
X256407143Y-179942019D01*
X256407143Y-179942019D02*
X256407143Y-180989638D01*
X257073810Y-179656304D02*
X257835714Y-179656304D01*
X257359524Y-178989638D02*
X257359524Y-180703923D01*
X257359524Y-180703923D02*
X257454762Y-180894400D01*
X257454762Y-180894400D02*
X257645238Y-180989638D01*
X257645238Y-180989638D02*
X257835714Y-180989638D01*
X247311904Y-184114400D02*
X247502380Y-184209638D01*
X247502380Y-184209638D02*
X247883332Y-184209638D01*
X247883332Y-184209638D02*
X248073809Y-184114400D01*
X248073809Y-184114400D02*
X248169047Y-183923923D01*
X248169047Y-183923923D02*
X248169047Y-183828685D01*
X248169047Y-183828685D02*
X248073809Y-183638209D01*
X248073809Y-183638209D02*
X247883332Y-183542971D01*
X247883332Y-183542971D02*
X247597618Y-183542971D01*
X247597618Y-183542971D02*
X247407142Y-183447733D01*
X247407142Y-183447733D02*
X247311904Y-183257257D01*
X247311904Y-183257257D02*
X247311904Y-183162019D01*
X247311904Y-183162019D02*
X247407142Y-182971542D01*
X247407142Y-182971542D02*
X247597618Y-182876304D01*
X247597618Y-182876304D02*
X247883332Y-182876304D01*
X247883332Y-182876304D02*
X248073809Y-182971542D01*
X249788095Y-184114400D02*
X249597619Y-184209638D01*
X249597619Y-184209638D02*
X249216666Y-184209638D01*
X249216666Y-184209638D02*
X249026190Y-184114400D01*
X249026190Y-184114400D02*
X248930952Y-183923923D01*
X248930952Y-183923923D02*
X248930952Y-183162019D01*
X248930952Y-183162019D02*
X249026190Y-182971542D01*
X249026190Y-182971542D02*
X249216666Y-182876304D01*
X249216666Y-182876304D02*
X249597619Y-182876304D01*
X249597619Y-182876304D02*
X249788095Y-182971542D01*
X249788095Y-182971542D02*
X249883333Y-183162019D01*
X249883333Y-183162019D02*
X249883333Y-183352495D01*
X249883333Y-183352495D02*
X248930952Y-183542971D01*
X250740476Y-182876304D02*
X250740476Y-184209638D01*
X250740476Y-183066780D02*
X250835714Y-182971542D01*
X250835714Y-182971542D02*
X251026190Y-182876304D01*
X251026190Y-182876304D02*
X251311905Y-182876304D01*
X251311905Y-182876304D02*
X251502381Y-182971542D01*
X251502381Y-182971542D02*
X251597619Y-183162019D01*
X251597619Y-183162019D02*
X251597619Y-184209638D01*
X252454762Y-184114400D02*
X252645238Y-184209638D01*
X252645238Y-184209638D02*
X253026190Y-184209638D01*
X253026190Y-184209638D02*
X253216667Y-184114400D01*
X253216667Y-184114400D02*
X253311905Y-183923923D01*
X253311905Y-183923923D02*
X253311905Y-183828685D01*
X253311905Y-183828685D02*
X253216667Y-183638209D01*
X253216667Y-183638209D02*
X253026190Y-183542971D01*
X253026190Y-183542971D02*
X252740476Y-183542971D01*
X252740476Y-183542971D02*
X252550000Y-183447733D01*
X252550000Y-183447733D02*
X252454762Y-183257257D01*
X252454762Y-183257257D02*
X252454762Y-183162019D01*
X252454762Y-183162019D02*
X252550000Y-182971542D01*
X252550000Y-182971542D02*
X252740476Y-182876304D01*
X252740476Y-182876304D02*
X253026190Y-182876304D01*
X253026190Y-182876304D02*
X253216667Y-182971542D01*
X254169048Y-184019161D02*
X254264286Y-184114400D01*
X254264286Y-184114400D02*
X254169048Y-184209638D01*
X254169048Y-184209638D02*
X254073810Y-184114400D01*
X254073810Y-184114400D02*
X254169048Y-184019161D01*
X254169048Y-184019161D02*
X254169048Y-184209638D01*
X256073810Y-184209638D02*
X255121429Y-184209638D01*
X255121429Y-184209638D02*
X255121429Y-182209638D01*
X257788096Y-184209638D02*
X256645239Y-184209638D01*
X257216667Y-184209638D02*
X257216667Y-182209638D01*
X257216667Y-182209638D02*
X257026191Y-182495352D01*
X257026191Y-182495352D02*
X256835715Y-182685828D01*
X256835715Y-182685828D02*
X256645239Y-182781066D01*
X264397857Y-180799161D02*
X264302619Y-180894400D01*
X264302619Y-180894400D02*
X264016905Y-180989638D01*
X264016905Y-180989638D02*
X263826429Y-180989638D01*
X263826429Y-180989638D02*
X263540714Y-180894400D01*
X263540714Y-180894400D02*
X263350238Y-180703923D01*
X263350238Y-180703923D02*
X263255000Y-180513447D01*
X263255000Y-180513447D02*
X263159762Y-180132495D01*
X263159762Y-180132495D02*
X263159762Y-179846780D01*
X263159762Y-179846780D02*
X263255000Y-179465828D01*
X263255000Y-179465828D02*
X263350238Y-179275352D01*
X263350238Y-179275352D02*
X263540714Y-179084876D01*
X263540714Y-179084876D02*
X263826429Y-178989638D01*
X263826429Y-178989638D02*
X264016905Y-178989638D01*
X264016905Y-178989638D02*
X264302619Y-179084876D01*
X264302619Y-179084876D02*
X264397857Y-179180114D01*
X266112143Y-179656304D02*
X266112143Y-180989638D01*
X265255000Y-179656304D02*
X265255000Y-180703923D01*
X265255000Y-180703923D02*
X265350238Y-180894400D01*
X265350238Y-180894400D02*
X265540714Y-180989638D01*
X265540714Y-180989638D02*
X265826429Y-180989638D01*
X265826429Y-180989638D02*
X266016905Y-180894400D01*
X266016905Y-180894400D02*
X266112143Y-180799161D01*
X267064524Y-180989638D02*
X267064524Y-179656304D01*
X267064524Y-180037257D02*
X267159762Y-179846780D01*
X267159762Y-179846780D02*
X267255000Y-179751542D01*
X267255000Y-179751542D02*
X267445476Y-179656304D01*
X267445476Y-179656304D02*
X267635953Y-179656304D01*
X268302619Y-180989638D02*
X268302619Y-179656304D01*
X268302619Y-180037257D02*
X268397857Y-179846780D01*
X268397857Y-179846780D02*
X268493095Y-179751542D01*
X268493095Y-179751542D02*
X268683571Y-179656304D01*
X268683571Y-179656304D02*
X268874048Y-179656304D01*
X270302619Y-180894400D02*
X270112143Y-180989638D01*
X270112143Y-180989638D02*
X269731190Y-180989638D01*
X269731190Y-180989638D02*
X269540714Y-180894400D01*
X269540714Y-180894400D02*
X269445476Y-180703923D01*
X269445476Y-180703923D02*
X269445476Y-179942019D01*
X269445476Y-179942019D02*
X269540714Y-179751542D01*
X269540714Y-179751542D02*
X269731190Y-179656304D01*
X269731190Y-179656304D02*
X270112143Y-179656304D01*
X270112143Y-179656304D02*
X270302619Y-179751542D01*
X270302619Y-179751542D02*
X270397857Y-179942019D01*
X270397857Y-179942019D02*
X270397857Y-180132495D01*
X270397857Y-180132495D02*
X269445476Y-180322971D01*
X271255000Y-179656304D02*
X271255000Y-180989638D01*
X271255000Y-179846780D02*
X271350238Y-179751542D01*
X271350238Y-179751542D02*
X271540714Y-179656304D01*
X271540714Y-179656304D02*
X271826429Y-179656304D01*
X271826429Y-179656304D02*
X272016905Y-179751542D01*
X272016905Y-179751542D02*
X272112143Y-179942019D01*
X272112143Y-179942019D02*
X272112143Y-180989638D01*
X272778810Y-179656304D02*
X273540714Y-179656304D01*
X273064524Y-178989638D02*
X273064524Y-180703923D01*
X273064524Y-180703923D02*
X273159762Y-180894400D01*
X273159762Y-180894400D02*
X273350238Y-180989638D01*
X273350238Y-180989638D02*
X273540714Y-180989638D01*
X263016904Y-184114400D02*
X263207380Y-184209638D01*
X263207380Y-184209638D02*
X263588332Y-184209638D01*
X263588332Y-184209638D02*
X263778809Y-184114400D01*
X263778809Y-184114400D02*
X263874047Y-183923923D01*
X263874047Y-183923923D02*
X263874047Y-183828685D01*
X263874047Y-183828685D02*
X263778809Y-183638209D01*
X263778809Y-183638209D02*
X263588332Y-183542971D01*
X263588332Y-183542971D02*
X263302618Y-183542971D01*
X263302618Y-183542971D02*
X263112142Y-183447733D01*
X263112142Y-183447733D02*
X263016904Y-183257257D01*
X263016904Y-183257257D02*
X263016904Y-183162019D01*
X263016904Y-183162019D02*
X263112142Y-182971542D01*
X263112142Y-182971542D02*
X263302618Y-182876304D01*
X263302618Y-182876304D02*
X263588332Y-182876304D01*
X263588332Y-182876304D02*
X263778809Y-182971542D01*
X265493095Y-184114400D02*
X265302619Y-184209638D01*
X265302619Y-184209638D02*
X264921666Y-184209638D01*
X264921666Y-184209638D02*
X264731190Y-184114400D01*
X264731190Y-184114400D02*
X264635952Y-183923923D01*
X264635952Y-183923923D02*
X264635952Y-183162019D01*
X264635952Y-183162019D02*
X264731190Y-182971542D01*
X264731190Y-182971542D02*
X264921666Y-182876304D01*
X264921666Y-182876304D02*
X265302619Y-182876304D01*
X265302619Y-182876304D02*
X265493095Y-182971542D01*
X265493095Y-182971542D02*
X265588333Y-183162019D01*
X265588333Y-183162019D02*
X265588333Y-183352495D01*
X265588333Y-183352495D02*
X264635952Y-183542971D01*
X266445476Y-182876304D02*
X266445476Y-184209638D01*
X266445476Y-183066780D02*
X266540714Y-182971542D01*
X266540714Y-182971542D02*
X266731190Y-182876304D01*
X266731190Y-182876304D02*
X267016905Y-182876304D01*
X267016905Y-182876304D02*
X267207381Y-182971542D01*
X267207381Y-182971542D02*
X267302619Y-183162019D01*
X267302619Y-183162019D02*
X267302619Y-184209638D01*
X268159762Y-184114400D02*
X268350238Y-184209638D01*
X268350238Y-184209638D02*
X268731190Y-184209638D01*
X268731190Y-184209638D02*
X268921667Y-184114400D01*
X268921667Y-184114400D02*
X269016905Y-183923923D01*
X269016905Y-183923923D02*
X269016905Y-183828685D01*
X269016905Y-183828685D02*
X268921667Y-183638209D01*
X268921667Y-183638209D02*
X268731190Y-183542971D01*
X268731190Y-183542971D02*
X268445476Y-183542971D01*
X268445476Y-183542971D02*
X268255000Y-183447733D01*
X268255000Y-183447733D02*
X268159762Y-183257257D01*
X268159762Y-183257257D02*
X268159762Y-183162019D01*
X268159762Y-183162019D02*
X268255000Y-182971542D01*
X268255000Y-182971542D02*
X268445476Y-182876304D01*
X268445476Y-182876304D02*
X268731190Y-182876304D01*
X268731190Y-182876304D02*
X268921667Y-182971542D01*
X269874048Y-184019161D02*
X269969286Y-184114400D01*
X269969286Y-184114400D02*
X269874048Y-184209638D01*
X269874048Y-184209638D02*
X269778810Y-184114400D01*
X269778810Y-184114400D02*
X269874048Y-184019161D01*
X269874048Y-184019161D02*
X269874048Y-184209638D01*
X271778810Y-184209638D02*
X270826429Y-184209638D01*
X270826429Y-184209638D02*
X270826429Y-182209638D01*
X272350239Y-182400114D02*
X272445477Y-182304876D01*
X272445477Y-182304876D02*
X272635953Y-182209638D01*
X272635953Y-182209638D02*
X273112144Y-182209638D01*
X273112144Y-182209638D02*
X273302620Y-182304876D01*
X273302620Y-182304876D02*
X273397858Y-182400114D01*
X273397858Y-182400114D02*
X273493096Y-182590590D01*
X273493096Y-182590590D02*
X273493096Y-182781066D01*
X273493096Y-182781066D02*
X273397858Y-183066780D01*
X273397858Y-183066780D02*
X272255001Y-184209638D01*
X272255001Y-184209638D02*
X273493096Y-184209638D01*
X277897857Y-180799161D02*
X277802619Y-180894400D01*
X277802619Y-180894400D02*
X277516905Y-180989638D01*
X277516905Y-180989638D02*
X277326429Y-180989638D01*
X277326429Y-180989638D02*
X277040714Y-180894400D01*
X277040714Y-180894400D02*
X276850238Y-180703923D01*
X276850238Y-180703923D02*
X276755000Y-180513447D01*
X276755000Y-180513447D02*
X276659762Y-180132495D01*
X276659762Y-180132495D02*
X276659762Y-179846780D01*
X276659762Y-179846780D02*
X276755000Y-179465828D01*
X276755000Y-179465828D02*
X276850238Y-179275352D01*
X276850238Y-179275352D02*
X277040714Y-179084876D01*
X277040714Y-179084876D02*
X277326429Y-178989638D01*
X277326429Y-178989638D02*
X277516905Y-178989638D01*
X277516905Y-178989638D02*
X277802619Y-179084876D01*
X277802619Y-179084876D02*
X277897857Y-179180114D01*
X279612143Y-179656304D02*
X279612143Y-180989638D01*
X278755000Y-179656304D02*
X278755000Y-180703923D01*
X278755000Y-180703923D02*
X278850238Y-180894400D01*
X278850238Y-180894400D02*
X279040714Y-180989638D01*
X279040714Y-180989638D02*
X279326429Y-180989638D01*
X279326429Y-180989638D02*
X279516905Y-180894400D01*
X279516905Y-180894400D02*
X279612143Y-180799161D01*
X280564524Y-180989638D02*
X280564524Y-179656304D01*
X280564524Y-180037257D02*
X280659762Y-179846780D01*
X280659762Y-179846780D02*
X280755000Y-179751542D01*
X280755000Y-179751542D02*
X280945476Y-179656304D01*
X280945476Y-179656304D02*
X281135953Y-179656304D01*
X281802619Y-180989638D02*
X281802619Y-179656304D01*
X281802619Y-180037257D02*
X281897857Y-179846780D01*
X281897857Y-179846780D02*
X281993095Y-179751542D01*
X281993095Y-179751542D02*
X282183571Y-179656304D01*
X282183571Y-179656304D02*
X282374048Y-179656304D01*
X283802619Y-180894400D02*
X283612143Y-180989638D01*
X283612143Y-180989638D02*
X283231190Y-180989638D01*
X283231190Y-180989638D02*
X283040714Y-180894400D01*
X283040714Y-180894400D02*
X282945476Y-180703923D01*
X282945476Y-180703923D02*
X282945476Y-179942019D01*
X282945476Y-179942019D02*
X283040714Y-179751542D01*
X283040714Y-179751542D02*
X283231190Y-179656304D01*
X283231190Y-179656304D02*
X283612143Y-179656304D01*
X283612143Y-179656304D02*
X283802619Y-179751542D01*
X283802619Y-179751542D02*
X283897857Y-179942019D01*
X283897857Y-179942019D02*
X283897857Y-180132495D01*
X283897857Y-180132495D02*
X282945476Y-180322971D01*
X284755000Y-179656304D02*
X284755000Y-180989638D01*
X284755000Y-179846780D02*
X284850238Y-179751542D01*
X284850238Y-179751542D02*
X285040714Y-179656304D01*
X285040714Y-179656304D02*
X285326429Y-179656304D01*
X285326429Y-179656304D02*
X285516905Y-179751542D01*
X285516905Y-179751542D02*
X285612143Y-179942019D01*
X285612143Y-179942019D02*
X285612143Y-180989638D01*
X286278810Y-179656304D02*
X287040714Y-179656304D01*
X286564524Y-178989638D02*
X286564524Y-180703923D01*
X286564524Y-180703923D02*
X286659762Y-180894400D01*
X286659762Y-180894400D02*
X286850238Y-180989638D01*
X286850238Y-180989638D02*
X287040714Y-180989638D01*
X276516904Y-184114400D02*
X276707380Y-184209638D01*
X276707380Y-184209638D02*
X277088332Y-184209638D01*
X277088332Y-184209638D02*
X277278809Y-184114400D01*
X277278809Y-184114400D02*
X277374047Y-183923923D01*
X277374047Y-183923923D02*
X277374047Y-183828685D01*
X277374047Y-183828685D02*
X277278809Y-183638209D01*
X277278809Y-183638209D02*
X277088332Y-183542971D01*
X277088332Y-183542971D02*
X276802618Y-183542971D01*
X276802618Y-183542971D02*
X276612142Y-183447733D01*
X276612142Y-183447733D02*
X276516904Y-183257257D01*
X276516904Y-183257257D02*
X276516904Y-183162019D01*
X276516904Y-183162019D02*
X276612142Y-182971542D01*
X276612142Y-182971542D02*
X276802618Y-182876304D01*
X276802618Y-182876304D02*
X277088332Y-182876304D01*
X277088332Y-182876304D02*
X277278809Y-182971542D01*
X278993095Y-184114400D02*
X278802619Y-184209638D01*
X278802619Y-184209638D02*
X278421666Y-184209638D01*
X278421666Y-184209638D02*
X278231190Y-184114400D01*
X278231190Y-184114400D02*
X278135952Y-183923923D01*
X278135952Y-183923923D02*
X278135952Y-183162019D01*
X278135952Y-183162019D02*
X278231190Y-182971542D01*
X278231190Y-182971542D02*
X278421666Y-182876304D01*
X278421666Y-182876304D02*
X278802619Y-182876304D01*
X278802619Y-182876304D02*
X278993095Y-182971542D01*
X278993095Y-182971542D02*
X279088333Y-183162019D01*
X279088333Y-183162019D02*
X279088333Y-183352495D01*
X279088333Y-183352495D02*
X278135952Y-183542971D01*
X279945476Y-182876304D02*
X279945476Y-184209638D01*
X279945476Y-183066780D02*
X280040714Y-182971542D01*
X280040714Y-182971542D02*
X280231190Y-182876304D01*
X280231190Y-182876304D02*
X280516905Y-182876304D01*
X280516905Y-182876304D02*
X280707381Y-182971542D01*
X280707381Y-182971542D02*
X280802619Y-183162019D01*
X280802619Y-183162019D02*
X280802619Y-184209638D01*
X281659762Y-184114400D02*
X281850238Y-184209638D01*
X281850238Y-184209638D02*
X282231190Y-184209638D01*
X282231190Y-184209638D02*
X282421667Y-184114400D01*
X282421667Y-184114400D02*
X282516905Y-183923923D01*
X282516905Y-183923923D02*
X282516905Y-183828685D01*
X282516905Y-183828685D02*
X282421667Y-183638209D01*
X282421667Y-183638209D02*
X282231190Y-183542971D01*
X282231190Y-183542971D02*
X281945476Y-183542971D01*
X281945476Y-183542971D02*
X281755000Y-183447733D01*
X281755000Y-183447733D02*
X281659762Y-183257257D01*
X281659762Y-183257257D02*
X281659762Y-183162019D01*
X281659762Y-183162019D02*
X281755000Y-182971542D01*
X281755000Y-182971542D02*
X281945476Y-182876304D01*
X281945476Y-182876304D02*
X282231190Y-182876304D01*
X282231190Y-182876304D02*
X282421667Y-182971542D01*
X283374048Y-184019161D02*
X283469286Y-184114400D01*
X283469286Y-184114400D02*
X283374048Y-184209638D01*
X283374048Y-184209638D02*
X283278810Y-184114400D01*
X283278810Y-184114400D02*
X283374048Y-184019161D01*
X283374048Y-184019161D02*
X283374048Y-184209638D01*
X285278810Y-184209638D02*
X284326429Y-184209638D01*
X284326429Y-184209638D02*
X284326429Y-182209638D01*
X285755001Y-182209638D02*
X286993096Y-182209638D01*
X286993096Y-182209638D02*
X286326429Y-182971542D01*
X286326429Y-182971542D02*
X286612144Y-182971542D01*
X286612144Y-182971542D02*
X286802620Y-183066780D01*
X286802620Y-183066780D02*
X286897858Y-183162019D01*
X286897858Y-183162019D02*
X286993096Y-183352495D01*
X286993096Y-183352495D02*
X286993096Y-183828685D01*
X286993096Y-183828685D02*
X286897858Y-184019161D01*
X286897858Y-184019161D02*
X286802620Y-184114400D01*
X286802620Y-184114400D02*
X286612144Y-184209638D01*
X286612144Y-184209638D02*
X286040715Y-184209638D01*
X286040715Y-184209638D02*
X285850239Y-184114400D01*
X285850239Y-184114400D02*
X285755001Y-184019161D01*
X161228571Y-197599638D02*
X161228571Y-195599638D01*
X161228571Y-195599638D02*
X162371428Y-197599638D01*
X162371428Y-197599638D02*
X162371428Y-195599638D01*
D11*
X249436573Y-91013561D02*
X250355232Y-91013561D01*
X250748943Y-92457167D02*
X249436573Y-92457167D01*
X249436573Y-92457167D02*
X249436573Y-89701191D01*
X249436573Y-89701191D02*
X250748943Y-89701191D01*
X251798838Y-92325931D02*
X252192549Y-92457167D01*
X252192549Y-92457167D02*
X252848734Y-92457167D01*
X252848734Y-92457167D02*
X253111208Y-92325931D01*
X253111208Y-92325931D02*
X253242445Y-92194694D01*
X253242445Y-92194694D02*
X253373682Y-91932220D01*
X253373682Y-91932220D02*
X253373682Y-91669746D01*
X253373682Y-91669746D02*
X253242445Y-91407272D01*
X253242445Y-91407272D02*
X253111208Y-91276035D01*
X253111208Y-91276035D02*
X252848734Y-91144798D01*
X252848734Y-91144798D02*
X252323786Y-91013561D01*
X252323786Y-91013561D02*
X252061312Y-90882324D01*
X252061312Y-90882324D02*
X251930075Y-90751087D01*
X251930075Y-90751087D02*
X251798838Y-90488613D01*
X251798838Y-90488613D02*
X251798838Y-90226139D01*
X251798838Y-90226139D02*
X251930075Y-89963665D01*
X251930075Y-89963665D02*
X252061312Y-89832428D01*
X252061312Y-89832428D02*
X252323786Y-89701191D01*
X252323786Y-89701191D02*
X252979971Y-89701191D01*
X252979971Y-89701191D02*
X253373682Y-89832428D01*
X254554814Y-92457167D02*
X254554814Y-89701191D01*
X254554814Y-89701191D02*
X255604710Y-89701191D01*
X255604710Y-89701191D02*
X255867184Y-89832428D01*
X255867184Y-89832428D02*
X255998421Y-89963665D01*
X255998421Y-89963665D02*
X256129658Y-90226139D01*
X256129658Y-90226139D02*
X256129658Y-90619850D01*
X256129658Y-90619850D02*
X255998421Y-90882324D01*
X255998421Y-90882324D02*
X255867184Y-91013561D01*
X255867184Y-91013561D02*
X255604710Y-91144798D01*
X255604710Y-91144798D02*
X254554814Y-91144798D01*
X257310790Y-91407272D02*
X259410582Y-91407272D01*
X260460477Y-89701191D02*
X261116662Y-92457167D01*
X261116662Y-92457167D02*
X261641610Y-90488613D01*
X261641610Y-90488613D02*
X262166558Y-92457167D01*
X262166558Y-92457167D02*
X262822743Y-89701191D01*
X265447482Y-92457167D02*
X264528823Y-91144798D01*
X263872638Y-92457167D02*
X263872638Y-89701191D01*
X263872638Y-89701191D02*
X264922534Y-89701191D01*
X264922534Y-89701191D02*
X265185008Y-89832428D01*
X265185008Y-89832428D02*
X265316245Y-89963665D01*
X265316245Y-89963665D02*
X265447482Y-90226139D01*
X265447482Y-90226139D02*
X265447482Y-90619850D01*
X265447482Y-90619850D02*
X265316245Y-90882324D01*
X265316245Y-90882324D02*
X265185008Y-91013561D01*
X265185008Y-91013561D02*
X264922534Y-91144798D01*
X264922534Y-91144798D02*
X263872638Y-91144798D01*
X267153562Y-89701191D02*
X267678510Y-89701191D01*
X267678510Y-89701191D02*
X267940984Y-89832428D01*
X267940984Y-89832428D02*
X268203458Y-90094902D01*
X268203458Y-90094902D02*
X268334695Y-90619850D01*
X268334695Y-90619850D02*
X268334695Y-91538509D01*
X268334695Y-91538509D02*
X268203458Y-92063457D01*
X268203458Y-92063457D02*
X267940984Y-92325931D01*
X267940984Y-92325931D02*
X267678510Y-92457167D01*
X267678510Y-92457167D02*
X267153562Y-92457167D01*
X267153562Y-92457167D02*
X266891088Y-92325931D01*
X266891088Y-92325931D02*
X266628614Y-92063457D01*
X266628614Y-92063457D02*
X266497377Y-91538509D01*
X266497377Y-91538509D02*
X266497377Y-90619850D01*
X266497377Y-90619850D02*
X266628614Y-90094902D01*
X266628614Y-90094902D02*
X266891088Y-89832428D01*
X266891088Y-89832428D02*
X267153562Y-89701191D01*
X269122116Y-89701191D02*
X270040775Y-92457167D01*
X270040775Y-92457167D02*
X270959434Y-89701191D01*
X271878092Y-91013561D02*
X272796751Y-91013561D01*
X273190462Y-92457167D02*
X271878092Y-92457167D01*
X271878092Y-92457167D02*
X271878092Y-89701191D01*
X271878092Y-89701191D02*
X273190462Y-89701191D01*
X275946438Y-92457167D02*
X275027779Y-91144798D01*
X274371594Y-92457167D02*
X274371594Y-89701191D01*
X274371594Y-89701191D02*
X275421490Y-89701191D01*
X275421490Y-89701191D02*
X275683964Y-89832428D01*
X275683964Y-89832428D02*
X275815201Y-89963665D01*
X275815201Y-89963665D02*
X275946438Y-90226139D01*
X275946438Y-90226139D02*
X275946438Y-90619850D01*
X275946438Y-90619850D02*
X275815201Y-90882324D01*
X275815201Y-90882324D02*
X275683964Y-91013561D01*
X275683964Y-91013561D02*
X275421490Y-91144798D01*
X275421490Y-91144798D02*
X274371594Y-91144798D01*
X277127570Y-91407272D02*
X279227362Y-91407272D01*
X280539731Y-92457167D02*
X280539731Y-89701191D01*
X282114575Y-92457167D02*
X280933442Y-90882324D01*
X282114575Y-89701191D02*
X280539731Y-91276035D01*
X283295707Y-92457167D02*
X283295707Y-89701191D01*
X284214366Y-89701191D02*
X285789210Y-89701191D01*
X285001788Y-92457167D02*
X285001788Y-89701191D01*
X286707868Y-91407272D02*
X288807660Y-91407272D01*
X289726318Y-89701191D02*
X290644977Y-92457167D01*
X290644977Y-92457167D02*
X291563636Y-89701191D01*
X292482294Y-91013561D02*
X293400953Y-91013561D01*
X293794664Y-92457167D02*
X292482294Y-92457167D01*
X292482294Y-92457167D02*
X292482294Y-89701191D01*
X292482294Y-89701191D02*
X293794664Y-89701191D01*
D12*
X181466666Y-174897419D02*
X181466666Y-175611704D01*
X181466666Y-175611704D02*
X181419047Y-175754561D01*
X181419047Y-175754561D02*
X181323809Y-175849800D01*
X181323809Y-175849800D02*
X181180952Y-175897419D01*
X181180952Y-175897419D02*
X181085714Y-175897419D01*
X182466666Y-175897419D02*
X181895238Y-175897419D01*
X182180952Y-175897419D02*
X182180952Y-174897419D01*
X182180952Y-174897419D02*
X182085714Y-175040276D01*
X182085714Y-175040276D02*
X181990476Y-175135514D01*
X181990476Y-175135514D02*
X181895238Y-175183133D01*
D11*
X244885682Y-193119359D02*
X245886739Y-193119359D01*
X245886739Y-193119359D02*
X246086950Y-193186096D01*
X246086950Y-193186096D02*
X246220425Y-193319570D01*
X246220425Y-193319570D02*
X246287162Y-193519782D01*
X246287162Y-193519782D02*
X246287162Y-193653256D01*
X244885682Y-192585462D02*
X244885682Y-191717879D01*
X244885682Y-191717879D02*
X245419579Y-192185039D01*
X245419579Y-192185039D02*
X245419579Y-191984828D01*
X245419579Y-191984828D02*
X245486316Y-191851354D01*
X245486316Y-191851354D02*
X245553053Y-191784616D01*
X245553053Y-191784616D02*
X245686527Y-191717879D01*
X245686527Y-191717879D02*
X246020213Y-191717879D01*
X246020213Y-191717879D02*
X246153687Y-191784616D01*
X246153687Y-191784616D02*
X246220425Y-191851354D01*
X246220425Y-191851354D02*
X246287162Y-191984828D01*
X246287162Y-191984828D02*
X246287162Y-192385251D01*
X246287162Y-192385251D02*
X246220425Y-192518725D01*
X246220425Y-192518725D02*
X246153687Y-192585462D01*
X258685682Y-193119359D02*
X259686739Y-193119359D01*
X259686739Y-193119359D02*
X259886950Y-193186096D01*
X259886950Y-193186096D02*
X260020425Y-193319570D01*
X260020425Y-193319570D02*
X260087162Y-193519782D01*
X260087162Y-193519782D02*
X260087162Y-193653256D01*
X259152842Y-191851354D02*
X260087162Y-191851354D01*
X258618945Y-192185039D02*
X259620002Y-192518725D01*
X259620002Y-192518725D02*
X259620002Y-191651142D01*
X272240682Y-193119359D02*
X273241739Y-193119359D01*
X273241739Y-193119359D02*
X273441950Y-193186096D01*
X273441950Y-193186096D02*
X273575425Y-193319570D01*
X273575425Y-193319570D02*
X273642162Y-193519782D01*
X273642162Y-193519782D02*
X273642162Y-193653256D01*
X272240682Y-191784616D02*
X272240682Y-192451988D01*
X272240682Y-192451988D02*
X272908053Y-192518725D01*
X272908053Y-192518725D02*
X272841316Y-192451988D01*
X272841316Y-192451988D02*
X272774579Y-192318514D01*
X272774579Y-192318514D02*
X272774579Y-191984828D01*
X272774579Y-191984828D02*
X272841316Y-191851354D01*
X272841316Y-191851354D02*
X272908053Y-191784616D01*
X272908053Y-191784616D02*
X273041527Y-191717879D01*
X273041527Y-191717879D02*
X273375213Y-191717879D01*
X273375213Y-191717879D02*
X273508687Y-191784616D01*
X273508687Y-191784616D02*
X273575425Y-191851354D01*
X273575425Y-191851354D02*
X273642162Y-191984828D01*
X273642162Y-191984828D02*
X273642162Y-192318514D01*
X273642162Y-192318514D02*
X273575425Y-192451988D01*
X273575425Y-192451988D02*
X273508687Y-192518725D01*
X242811905Y-184144819D02*
X242811905Y-183144819D01*
X242811905Y-183144819D02*
X243050000Y-183144819D01*
X243050000Y-183144819D02*
X243192857Y-183192438D01*
X243192857Y-183192438D02*
X243288095Y-183287676D01*
X243288095Y-183287676D02*
X243335714Y-183382914D01*
X243335714Y-183382914D02*
X243383333Y-183573390D01*
X243383333Y-183573390D02*
X243383333Y-183716247D01*
X243383333Y-183716247D02*
X243335714Y-183906723D01*
X243335714Y-183906723D02*
X243288095Y-184001961D01*
X243288095Y-184001961D02*
X243192857Y-184097200D01*
X243192857Y-184097200D02*
X243050000Y-184144819D01*
X243050000Y-184144819D02*
X242811905Y-184144819D01*
X243764286Y-183240057D02*
X243811905Y-183192438D01*
X243811905Y-183192438D02*
X243907143Y-183144819D01*
X243907143Y-183144819D02*
X244145238Y-183144819D01*
X244145238Y-183144819D02*
X244240476Y-183192438D01*
X244240476Y-183192438D02*
X244288095Y-183240057D01*
X244288095Y-183240057D02*
X244335714Y-183335295D01*
X244335714Y-183335295D02*
X244335714Y-183430533D01*
X244335714Y-183430533D02*
X244288095Y-183573390D01*
X244288095Y-183573390D02*
X243716667Y-184144819D01*
X243716667Y-184144819D02*
X244335714Y-184144819D01*
X242754819Y-196178094D02*
X241754819Y-196178094D01*
X242754819Y-195606666D02*
X242183390Y-196035237D01*
X241754819Y-195606666D02*
X242326247Y-196178094D01*
X242754819Y-194654285D02*
X242754819Y-195225713D01*
X242754819Y-194939999D02*
X241754819Y-194939999D01*
X241754819Y-194939999D02*
X241897676Y-195035237D01*
X241897676Y-195035237D02*
X241992914Y-195130475D01*
X241992914Y-195130475D02*
X242040533Y-195225713D01*
X239811905Y-159644819D02*
X239811905Y-158644819D01*
X239811905Y-158644819D02*
X240050000Y-158644819D01*
X240050000Y-158644819D02*
X240192857Y-158692438D01*
X240192857Y-158692438D02*
X240288095Y-158787676D01*
X240288095Y-158787676D02*
X240335714Y-158882914D01*
X240335714Y-158882914D02*
X240383333Y-159073390D01*
X240383333Y-159073390D02*
X240383333Y-159216247D01*
X240383333Y-159216247D02*
X240335714Y-159406723D01*
X240335714Y-159406723D02*
X240288095Y-159501961D01*
X240288095Y-159501961D02*
X240192857Y-159597200D01*
X240192857Y-159597200D02*
X240050000Y-159644819D01*
X240050000Y-159644819D02*
X239811905Y-159644819D01*
X240716667Y-158644819D02*
X241335714Y-158644819D01*
X241335714Y-158644819D02*
X241002381Y-159025771D01*
X241002381Y-159025771D02*
X241145238Y-159025771D01*
X241145238Y-159025771D02*
X241240476Y-159073390D01*
X241240476Y-159073390D02*
X241288095Y-159121009D01*
X241288095Y-159121009D02*
X241335714Y-159216247D01*
X241335714Y-159216247D02*
X241335714Y-159454342D01*
X241335714Y-159454342D02*
X241288095Y-159549580D01*
X241288095Y-159549580D02*
X241240476Y-159597200D01*
X241240476Y-159597200D02*
X241145238Y-159644819D01*
X241145238Y-159644819D02*
X240859524Y-159644819D01*
X240859524Y-159644819D02*
X240764286Y-159597200D01*
X240764286Y-159597200D02*
X240716667Y-159549580D01*
X238804819Y-174701904D02*
X237804819Y-174701904D01*
X238804819Y-174130476D02*
X238233390Y-174559047D01*
X237804819Y-174130476D02*
X238376247Y-174701904D01*
X240744761Y-144430057D02*
X240649523Y-144382438D01*
X240649523Y-144382438D02*
X240554285Y-144287200D01*
X240554285Y-144287200D02*
X240411428Y-144144342D01*
X240411428Y-144144342D02*
X240316190Y-144096723D01*
X240316190Y-144096723D02*
X240220952Y-144096723D01*
X240268571Y-144334819D02*
X240173333Y-144287200D01*
X240173333Y-144287200D02*
X240078095Y-144191961D01*
X240078095Y-144191961D02*
X240030476Y-144001485D01*
X240030476Y-144001485D02*
X240030476Y-143668152D01*
X240030476Y-143668152D02*
X240078095Y-143477676D01*
X240078095Y-143477676D02*
X240173333Y-143382438D01*
X240173333Y-143382438D02*
X240268571Y-143334819D01*
X240268571Y-143334819D02*
X240459047Y-143334819D01*
X240459047Y-143334819D02*
X240554285Y-143382438D01*
X240554285Y-143382438D02*
X240649523Y-143477676D01*
X240649523Y-143477676D02*
X240697142Y-143668152D01*
X240697142Y-143668152D02*
X240697142Y-144001485D01*
X240697142Y-144001485D02*
X240649523Y-144191961D01*
X240649523Y-144191961D02*
X240554285Y-144287200D01*
X240554285Y-144287200D02*
X240459047Y-144334819D01*
X240459047Y-144334819D02*
X240268571Y-144334819D01*
X241649523Y-144334819D02*
X241078095Y-144334819D01*
X241363809Y-144334819D02*
X241363809Y-143334819D01*
X241363809Y-143334819D02*
X241268571Y-143477676D01*
X241268571Y-143477676D02*
X241173333Y-143572914D01*
X241173333Y-143572914D02*
X241078095Y-143620533D01*
X283338333Y-144894819D02*
X283005000Y-144418628D01*
X282766905Y-144894819D02*
X282766905Y-143894819D01*
X282766905Y-143894819D02*
X283147857Y-143894819D01*
X283147857Y-143894819D02*
X283243095Y-143942438D01*
X283243095Y-143942438D02*
X283290714Y-143990057D01*
X283290714Y-143990057D02*
X283338333Y-144085295D01*
X283338333Y-144085295D02*
X283338333Y-144228152D01*
X283338333Y-144228152D02*
X283290714Y-144323390D01*
X283290714Y-144323390D02*
X283243095Y-144371009D01*
X283243095Y-144371009D02*
X283147857Y-144418628D01*
X283147857Y-144418628D02*
X282766905Y-144418628D01*
X284290714Y-144894819D02*
X283719286Y-144894819D01*
X284005000Y-144894819D02*
X284005000Y-143894819D01*
X284005000Y-143894819D02*
X283909762Y-144037676D01*
X283909762Y-144037676D02*
X283814524Y-144132914D01*
X283814524Y-144132914D02*
X283719286Y-144180533D01*
X279838333Y-144894819D02*
X279505000Y-144418628D01*
X279266905Y-144894819D02*
X279266905Y-143894819D01*
X279266905Y-143894819D02*
X279647857Y-143894819D01*
X279647857Y-143894819D02*
X279743095Y-143942438D01*
X279743095Y-143942438D02*
X279790714Y-143990057D01*
X279790714Y-143990057D02*
X279838333Y-144085295D01*
X279838333Y-144085295D02*
X279838333Y-144228152D01*
X279838333Y-144228152D02*
X279790714Y-144323390D01*
X279790714Y-144323390D02*
X279743095Y-144371009D01*
X279743095Y-144371009D02*
X279647857Y-144418628D01*
X279647857Y-144418628D02*
X279266905Y-144418628D01*
X280219286Y-143990057D02*
X280266905Y-143942438D01*
X280266905Y-143942438D02*
X280362143Y-143894819D01*
X280362143Y-143894819D02*
X280600238Y-143894819D01*
X280600238Y-143894819D02*
X280695476Y-143942438D01*
X280695476Y-143942438D02*
X280743095Y-143990057D01*
X280743095Y-143990057D02*
X280790714Y-144085295D01*
X280790714Y-144085295D02*
X280790714Y-144180533D01*
X280790714Y-144180533D02*
X280743095Y-144323390D01*
X280743095Y-144323390D02*
X280171667Y-144894819D01*
X280171667Y-144894819D02*
X280790714Y-144894819D01*
X240803333Y-154514819D02*
X240470000Y-154038628D01*
X240231905Y-154514819D02*
X240231905Y-153514819D01*
X240231905Y-153514819D02*
X240612857Y-153514819D01*
X240612857Y-153514819D02*
X240708095Y-153562438D01*
X240708095Y-153562438D02*
X240755714Y-153610057D01*
X240755714Y-153610057D02*
X240803333Y-153705295D01*
X240803333Y-153705295D02*
X240803333Y-153848152D01*
X240803333Y-153848152D02*
X240755714Y-153943390D01*
X240755714Y-153943390D02*
X240708095Y-153991009D01*
X240708095Y-153991009D02*
X240612857Y-154038628D01*
X240612857Y-154038628D02*
X240231905Y-154038628D01*
X241136667Y-153514819D02*
X241755714Y-153514819D01*
X241755714Y-153514819D02*
X241422381Y-153895771D01*
X241422381Y-153895771D02*
X241565238Y-153895771D01*
X241565238Y-153895771D02*
X241660476Y-153943390D01*
X241660476Y-153943390D02*
X241708095Y-153991009D01*
X241708095Y-153991009D02*
X241755714Y-154086247D01*
X241755714Y-154086247D02*
X241755714Y-154324342D01*
X241755714Y-154324342D02*
X241708095Y-154419580D01*
X241708095Y-154419580D02*
X241660476Y-154467200D01*
X241660476Y-154467200D02*
X241565238Y-154514819D01*
X241565238Y-154514819D02*
X241279524Y-154514819D01*
X241279524Y-154514819D02*
X241184286Y-154467200D01*
X241184286Y-154467200D02*
X241136667Y-154419580D01*
X293743333Y-158904819D02*
X293410000Y-158428628D01*
X293171905Y-158904819D02*
X293171905Y-157904819D01*
X293171905Y-157904819D02*
X293552857Y-157904819D01*
X293552857Y-157904819D02*
X293648095Y-157952438D01*
X293648095Y-157952438D02*
X293695714Y-158000057D01*
X293695714Y-158000057D02*
X293743333Y-158095295D01*
X293743333Y-158095295D02*
X293743333Y-158238152D01*
X293743333Y-158238152D02*
X293695714Y-158333390D01*
X293695714Y-158333390D02*
X293648095Y-158381009D01*
X293648095Y-158381009D02*
X293552857Y-158428628D01*
X293552857Y-158428628D02*
X293171905Y-158428628D01*
X294600476Y-158238152D02*
X294600476Y-158904819D01*
X294362381Y-157857200D02*
X294124286Y-158571485D01*
X294124286Y-158571485D02*
X294743333Y-158571485D01*
X290343333Y-158994819D02*
X290010000Y-158518628D01*
X289771905Y-158994819D02*
X289771905Y-157994819D01*
X289771905Y-157994819D02*
X290152857Y-157994819D01*
X290152857Y-157994819D02*
X290248095Y-158042438D01*
X290248095Y-158042438D02*
X290295714Y-158090057D01*
X290295714Y-158090057D02*
X290343333Y-158185295D01*
X290343333Y-158185295D02*
X290343333Y-158328152D01*
X290343333Y-158328152D02*
X290295714Y-158423390D01*
X290295714Y-158423390D02*
X290248095Y-158471009D01*
X290248095Y-158471009D02*
X290152857Y-158518628D01*
X290152857Y-158518628D02*
X289771905Y-158518628D01*
X291248095Y-157994819D02*
X290771905Y-157994819D01*
X290771905Y-157994819D02*
X290724286Y-158471009D01*
X290724286Y-158471009D02*
X290771905Y-158423390D01*
X290771905Y-158423390D02*
X290867143Y-158375771D01*
X290867143Y-158375771D02*
X291105238Y-158375771D01*
X291105238Y-158375771D02*
X291200476Y-158423390D01*
X291200476Y-158423390D02*
X291248095Y-158471009D01*
X291248095Y-158471009D02*
X291295714Y-158566247D01*
X291295714Y-158566247D02*
X291295714Y-158804342D01*
X291295714Y-158804342D02*
X291248095Y-158899580D01*
X291248095Y-158899580D02*
X291200476Y-158947200D01*
X291200476Y-158947200D02*
X291105238Y-158994819D01*
X291105238Y-158994819D02*
X290867143Y-158994819D01*
X290867143Y-158994819D02*
X290771905Y-158947200D01*
X290771905Y-158947200D02*
X290724286Y-158899580D01*
X282508333Y-177014819D02*
X282175000Y-176538628D01*
X281936905Y-177014819D02*
X281936905Y-176014819D01*
X281936905Y-176014819D02*
X282317857Y-176014819D01*
X282317857Y-176014819D02*
X282413095Y-176062438D01*
X282413095Y-176062438D02*
X282460714Y-176110057D01*
X282460714Y-176110057D02*
X282508333Y-176205295D01*
X282508333Y-176205295D02*
X282508333Y-176348152D01*
X282508333Y-176348152D02*
X282460714Y-176443390D01*
X282460714Y-176443390D02*
X282413095Y-176491009D01*
X282413095Y-176491009D02*
X282317857Y-176538628D01*
X282317857Y-176538628D02*
X281936905Y-176538628D01*
X283365476Y-176014819D02*
X283175000Y-176014819D01*
X283175000Y-176014819D02*
X283079762Y-176062438D01*
X283079762Y-176062438D02*
X283032143Y-176110057D01*
X283032143Y-176110057D02*
X282936905Y-176252914D01*
X282936905Y-176252914D02*
X282889286Y-176443390D01*
X282889286Y-176443390D02*
X282889286Y-176824342D01*
X282889286Y-176824342D02*
X282936905Y-176919580D01*
X282936905Y-176919580D02*
X282984524Y-176967200D01*
X282984524Y-176967200D02*
X283079762Y-177014819D01*
X283079762Y-177014819D02*
X283270238Y-177014819D01*
X283270238Y-177014819D02*
X283365476Y-176967200D01*
X283365476Y-176967200D02*
X283413095Y-176919580D01*
X283413095Y-176919580D02*
X283460714Y-176824342D01*
X283460714Y-176824342D02*
X283460714Y-176586247D01*
X283460714Y-176586247D02*
X283413095Y-176491009D01*
X283413095Y-176491009D02*
X283365476Y-176443390D01*
X283365476Y-176443390D02*
X283270238Y-176395771D01*
X283270238Y-176395771D02*
X283079762Y-176395771D01*
X283079762Y-176395771D02*
X282984524Y-176443390D01*
X282984524Y-176443390D02*
X282936905Y-176491009D01*
X282936905Y-176491009D02*
X282889286Y-176586247D01*
X276598334Y-145009818D02*
X276265001Y-144533627D01*
X276026906Y-145009818D02*
X276026906Y-144009818D01*
X276026906Y-144009818D02*
X276407858Y-144009818D01*
X276407858Y-144009818D02*
X276503096Y-144057437D01*
X276503096Y-144057437D02*
X276550715Y-144105056D01*
X276550715Y-144105056D02*
X276598334Y-144200294D01*
X276598334Y-144200294D02*
X276598334Y-144343151D01*
X276598334Y-144343151D02*
X276550715Y-144438389D01*
X276550715Y-144438389D02*
X276503096Y-144486008D01*
X276503096Y-144486008D02*
X276407858Y-144533627D01*
X276407858Y-144533627D02*
X276026906Y-144533627D01*
X276931668Y-144009818D02*
X277598334Y-144009818D01*
X277598334Y-144009818D02*
X277169763Y-145009818D01*
X273088333Y-144894819D02*
X272755000Y-144418628D01*
X272516905Y-144894819D02*
X272516905Y-143894819D01*
X272516905Y-143894819D02*
X272897857Y-143894819D01*
X272897857Y-143894819D02*
X272993095Y-143942438D01*
X272993095Y-143942438D02*
X273040714Y-143990057D01*
X273040714Y-143990057D02*
X273088333Y-144085295D01*
X273088333Y-144085295D02*
X273088333Y-144228152D01*
X273088333Y-144228152D02*
X273040714Y-144323390D01*
X273040714Y-144323390D02*
X272993095Y-144371009D01*
X272993095Y-144371009D02*
X272897857Y-144418628D01*
X272897857Y-144418628D02*
X272516905Y-144418628D01*
X273659762Y-144323390D02*
X273564524Y-144275771D01*
X273564524Y-144275771D02*
X273516905Y-144228152D01*
X273516905Y-144228152D02*
X273469286Y-144132914D01*
X273469286Y-144132914D02*
X273469286Y-144085295D01*
X273469286Y-144085295D02*
X273516905Y-143990057D01*
X273516905Y-143990057D02*
X273564524Y-143942438D01*
X273564524Y-143942438D02*
X273659762Y-143894819D01*
X273659762Y-143894819D02*
X273850238Y-143894819D01*
X273850238Y-143894819D02*
X273945476Y-143942438D01*
X273945476Y-143942438D02*
X273993095Y-143990057D01*
X273993095Y-143990057D02*
X274040714Y-144085295D01*
X274040714Y-144085295D02*
X274040714Y-144132914D01*
X274040714Y-144132914D02*
X273993095Y-144228152D01*
X273993095Y-144228152D02*
X273945476Y-144275771D01*
X273945476Y-144275771D02*
X273850238Y-144323390D01*
X273850238Y-144323390D02*
X273659762Y-144323390D01*
X273659762Y-144323390D02*
X273564524Y-144371009D01*
X273564524Y-144371009D02*
X273516905Y-144418628D01*
X273516905Y-144418628D02*
X273469286Y-144513866D01*
X273469286Y-144513866D02*
X273469286Y-144704342D01*
X273469286Y-144704342D02*
X273516905Y-144799580D01*
X273516905Y-144799580D02*
X273564524Y-144847200D01*
X273564524Y-144847200D02*
X273659762Y-144894819D01*
X273659762Y-144894819D02*
X273850238Y-144894819D01*
X273850238Y-144894819D02*
X273945476Y-144847200D01*
X273945476Y-144847200D02*
X273993095Y-144799580D01*
X273993095Y-144799580D02*
X274040714Y-144704342D01*
X274040714Y-144704342D02*
X274040714Y-144513866D01*
X274040714Y-144513866D02*
X273993095Y-144418628D01*
X273993095Y-144418628D02*
X273945476Y-144371009D01*
X273945476Y-144371009D02*
X273850238Y-144323390D01*
X157288095Y-147894819D02*
X157859523Y-147894819D01*
X157573809Y-148894819D02*
X157573809Y-147894819D01*
X158097619Y-147894819D02*
X158716666Y-147894819D01*
X158716666Y-147894819D02*
X158383333Y-148275771D01*
X158383333Y-148275771D02*
X158526190Y-148275771D01*
X158526190Y-148275771D02*
X158621428Y-148323390D01*
X158621428Y-148323390D02*
X158669047Y-148371009D01*
X158669047Y-148371009D02*
X158716666Y-148466247D01*
X158716666Y-148466247D02*
X158716666Y-148704342D01*
X158716666Y-148704342D02*
X158669047Y-148799580D01*
X158669047Y-148799580D02*
X158621428Y-148847200D01*
X158621428Y-148847200D02*
X158526190Y-148894819D01*
X158526190Y-148894819D02*
X158240476Y-148894819D01*
X158240476Y-148894819D02*
X158145238Y-148847200D01*
X158145238Y-148847200D02*
X158097619Y-148799580D01*
X205788095Y-147894819D02*
X206359523Y-147894819D01*
X206073809Y-148894819D02*
X206073809Y-147894819D01*
X207216666Y-148894819D02*
X206645238Y-148894819D01*
X206930952Y-148894819D02*
X206930952Y-147894819D01*
X206930952Y-147894819D02*
X206835714Y-148037676D01*
X206835714Y-148037676D02*
X206740476Y-148132914D01*
X206740476Y-148132914D02*
X206645238Y-148180533D01*
X181288095Y-147894819D02*
X181859523Y-147894819D01*
X181573809Y-148894819D02*
X181573809Y-147894819D01*
X182145238Y-147990057D02*
X182192857Y-147942438D01*
X182192857Y-147942438D02*
X182288095Y-147894819D01*
X182288095Y-147894819D02*
X182526190Y-147894819D01*
X182526190Y-147894819D02*
X182621428Y-147942438D01*
X182621428Y-147942438D02*
X182669047Y-147990057D01*
X182669047Y-147990057D02*
X182716666Y-148085295D01*
X182716666Y-148085295D02*
X182716666Y-148180533D01*
X182716666Y-148180533D02*
X182669047Y-148323390D01*
X182669047Y-148323390D02*
X182097619Y-148894819D01*
X182097619Y-148894819D02*
X182716666Y-148894819D01*
X282053095Y-160314819D02*
X282053095Y-161124342D01*
X282053095Y-161124342D02*
X282100714Y-161219580D01*
X282100714Y-161219580D02*
X282148333Y-161267200D01*
X282148333Y-161267200D02*
X282243571Y-161314819D01*
X282243571Y-161314819D02*
X282434047Y-161314819D01*
X282434047Y-161314819D02*
X282529285Y-161267200D01*
X282529285Y-161267200D02*
X282576904Y-161219580D01*
X282576904Y-161219580D02*
X282624523Y-161124342D01*
X282624523Y-161124342D02*
X282624523Y-160314819D01*
X283005476Y-160314819D02*
X283624523Y-160314819D01*
X283624523Y-160314819D02*
X283291190Y-160695771D01*
X283291190Y-160695771D02*
X283434047Y-160695771D01*
X283434047Y-160695771D02*
X283529285Y-160743390D01*
X283529285Y-160743390D02*
X283576904Y-160791009D01*
X283576904Y-160791009D02*
X283624523Y-160886247D01*
X283624523Y-160886247D02*
X283624523Y-161124342D01*
X283624523Y-161124342D02*
X283576904Y-161219580D01*
X283576904Y-161219580D02*
X283529285Y-161267200D01*
X283529285Y-161267200D02*
X283434047Y-161314819D01*
X283434047Y-161314819D02*
X283148333Y-161314819D01*
X283148333Y-161314819D02*
X283053095Y-161267200D01*
X283053095Y-161267200D02*
X283005476Y-161219580D01*
X269016905Y-144894819D02*
X269016905Y-143894819D01*
X269016905Y-143894819D02*
X269255000Y-143894819D01*
X269255000Y-143894819D02*
X269397857Y-143942438D01*
X269397857Y-143942438D02*
X269493095Y-144037676D01*
X269493095Y-144037676D02*
X269540714Y-144132914D01*
X269540714Y-144132914D02*
X269588333Y-144323390D01*
X269588333Y-144323390D02*
X269588333Y-144466247D01*
X269588333Y-144466247D02*
X269540714Y-144656723D01*
X269540714Y-144656723D02*
X269493095Y-144751961D01*
X269493095Y-144751961D02*
X269397857Y-144847200D01*
X269397857Y-144847200D02*
X269255000Y-144894819D01*
X269255000Y-144894819D02*
X269016905Y-144894819D01*
X270445476Y-143894819D02*
X270255000Y-143894819D01*
X270255000Y-143894819D02*
X270159762Y-143942438D01*
X270159762Y-143942438D02*
X270112143Y-143990057D01*
X270112143Y-143990057D02*
X270016905Y-144132914D01*
X270016905Y-144132914D02*
X269969286Y-144323390D01*
X269969286Y-144323390D02*
X269969286Y-144704342D01*
X269969286Y-144704342D02*
X270016905Y-144799580D01*
X270016905Y-144799580D02*
X270064524Y-144847200D01*
X270064524Y-144847200D02*
X270159762Y-144894819D01*
X270159762Y-144894819D02*
X270350238Y-144894819D01*
X270350238Y-144894819D02*
X270445476Y-144847200D01*
X270445476Y-144847200D02*
X270493095Y-144799580D01*
X270493095Y-144799580D02*
X270540714Y-144704342D01*
X270540714Y-144704342D02*
X270540714Y-144466247D01*
X270540714Y-144466247D02*
X270493095Y-144371009D01*
X270493095Y-144371009D02*
X270445476Y-144323390D01*
X270445476Y-144323390D02*
X270350238Y-144275771D01*
X270350238Y-144275771D02*
X270159762Y-144275771D01*
X270159762Y-144275771D02*
X270064524Y-144323390D01*
X270064524Y-144323390D02*
X270016905Y-144371009D01*
X270016905Y-144371009D02*
X269969286Y-144466247D01*
X268909819Y-156951904D02*
X267909819Y-156951904D01*
X268909819Y-156380476D02*
X268338390Y-156809047D01*
X267909819Y-156380476D02*
X268481247Y-156951904D01*
X247083333Y-157144819D02*
X246607143Y-157144819D01*
X246607143Y-157144819D02*
X246607143Y-156144819D01*
X247940476Y-157144819D02*
X247369048Y-157144819D01*
X247654762Y-157144819D02*
X247654762Y-156144819D01*
X247654762Y-156144819D02*
X247559524Y-156287676D01*
X247559524Y-156287676D02*
X247464286Y-156382914D01*
X247464286Y-156382914D02*
X247369048Y-156430533D01*
X270838333Y-174299580D02*
X270790714Y-174347200D01*
X270790714Y-174347200D02*
X270647857Y-174394819D01*
X270647857Y-174394819D02*
X270552619Y-174394819D01*
X270552619Y-174394819D02*
X270409762Y-174347200D01*
X270409762Y-174347200D02*
X270314524Y-174251961D01*
X270314524Y-174251961D02*
X270266905Y-174156723D01*
X270266905Y-174156723D02*
X270219286Y-173966247D01*
X270219286Y-173966247D02*
X270219286Y-173823390D01*
X270219286Y-173823390D02*
X270266905Y-173632914D01*
X270266905Y-173632914D02*
X270314524Y-173537676D01*
X270314524Y-173537676D02*
X270409762Y-173442438D01*
X270409762Y-173442438D02*
X270552619Y-173394819D01*
X270552619Y-173394819D02*
X270647857Y-173394819D01*
X270647857Y-173394819D02*
X270790714Y-173442438D01*
X270790714Y-173442438D02*
X270838333Y-173490057D01*
X271219286Y-173490057D02*
X271266905Y-173442438D01*
X271266905Y-173442438D02*
X271362143Y-173394819D01*
X271362143Y-173394819D02*
X271600238Y-173394819D01*
X271600238Y-173394819D02*
X271695476Y-173442438D01*
X271695476Y-173442438D02*
X271743095Y-173490057D01*
X271743095Y-173490057D02*
X271790714Y-173585295D01*
X271790714Y-173585295D02*
X271790714Y-173680533D01*
X271790714Y-173680533D02*
X271743095Y-173823390D01*
X271743095Y-173823390D02*
X271171667Y-174394819D01*
X271171667Y-174394819D02*
X271790714Y-174394819D01*
X248883333Y-168299580D02*
X248835714Y-168347200D01*
X248835714Y-168347200D02*
X248692857Y-168394819D01*
X248692857Y-168394819D02*
X248597619Y-168394819D01*
X248597619Y-168394819D02*
X248454762Y-168347200D01*
X248454762Y-168347200D02*
X248359524Y-168251961D01*
X248359524Y-168251961D02*
X248311905Y-168156723D01*
X248311905Y-168156723D02*
X248264286Y-167966247D01*
X248264286Y-167966247D02*
X248264286Y-167823390D01*
X248264286Y-167823390D02*
X248311905Y-167632914D01*
X248311905Y-167632914D02*
X248359524Y-167537676D01*
X248359524Y-167537676D02*
X248454762Y-167442438D01*
X248454762Y-167442438D02*
X248597619Y-167394819D01*
X248597619Y-167394819D02*
X248692857Y-167394819D01*
X248692857Y-167394819D02*
X248835714Y-167442438D01*
X248835714Y-167442438D02*
X248883333Y-167490057D01*
X249216667Y-167394819D02*
X249835714Y-167394819D01*
X249835714Y-167394819D02*
X249502381Y-167775771D01*
X249502381Y-167775771D02*
X249645238Y-167775771D01*
X249645238Y-167775771D02*
X249740476Y-167823390D01*
X249740476Y-167823390D02*
X249788095Y-167871009D01*
X249788095Y-167871009D02*
X249835714Y-167966247D01*
X249835714Y-167966247D02*
X249835714Y-168204342D01*
X249835714Y-168204342D02*
X249788095Y-168299580D01*
X249788095Y-168299580D02*
X249740476Y-168347200D01*
X249740476Y-168347200D02*
X249645238Y-168394819D01*
X249645238Y-168394819D02*
X249359524Y-168394819D01*
X249359524Y-168394819D02*
X249264286Y-168347200D01*
X249264286Y-168347200D02*
X249216667Y-168299580D01*
X270838333Y-160299580D02*
X270790714Y-160347200D01*
X270790714Y-160347200D02*
X270647857Y-160394819D01*
X270647857Y-160394819D02*
X270552619Y-160394819D01*
X270552619Y-160394819D02*
X270409762Y-160347200D01*
X270409762Y-160347200D02*
X270314524Y-160251961D01*
X270314524Y-160251961D02*
X270266905Y-160156723D01*
X270266905Y-160156723D02*
X270219286Y-159966247D01*
X270219286Y-159966247D02*
X270219286Y-159823390D01*
X270219286Y-159823390D02*
X270266905Y-159632914D01*
X270266905Y-159632914D02*
X270314524Y-159537676D01*
X270314524Y-159537676D02*
X270409762Y-159442438D01*
X270409762Y-159442438D02*
X270552619Y-159394819D01*
X270552619Y-159394819D02*
X270647857Y-159394819D01*
X270647857Y-159394819D02*
X270790714Y-159442438D01*
X270790714Y-159442438D02*
X270838333Y-159490057D01*
X271790714Y-160394819D02*
X271219286Y-160394819D01*
X271505000Y-160394819D02*
X271505000Y-159394819D01*
X271505000Y-159394819D02*
X271409762Y-159537676D01*
X271409762Y-159537676D02*
X271314524Y-159632914D01*
X271314524Y-159632914D02*
X271219286Y-159680533D01*
X184311905Y-143144819D02*
X184311905Y-142144819D01*
X184311905Y-142144819D02*
X184550000Y-142144819D01*
X184550000Y-142144819D02*
X184692857Y-142192438D01*
X184692857Y-142192438D02*
X184788095Y-142287676D01*
X184788095Y-142287676D02*
X184835714Y-142382914D01*
X184835714Y-142382914D02*
X184883333Y-142573390D01*
X184883333Y-142573390D02*
X184883333Y-142716247D01*
X184883333Y-142716247D02*
X184835714Y-142906723D01*
X184835714Y-142906723D02*
X184788095Y-143001961D01*
X184788095Y-143001961D02*
X184692857Y-143097200D01*
X184692857Y-143097200D02*
X184550000Y-143144819D01*
X184550000Y-143144819D02*
X184311905Y-143144819D01*
X185740476Y-142478152D02*
X185740476Y-143144819D01*
X185502381Y-142097200D02*
X185264286Y-142811485D01*
X185264286Y-142811485D02*
X185883333Y-142811485D01*
X197288095Y-144944819D02*
X197288095Y-143944819D01*
X197859523Y-144944819D02*
X197430952Y-144373390D01*
X197859523Y-143944819D02*
X197288095Y-144516247D01*
X184407142Y-133644819D02*
X184073809Y-133168628D01*
X183835714Y-133644819D02*
X183835714Y-132644819D01*
X183835714Y-132644819D02*
X184216666Y-132644819D01*
X184216666Y-132644819D02*
X184311904Y-132692438D01*
X184311904Y-132692438D02*
X184359523Y-132740057D01*
X184359523Y-132740057D02*
X184407142Y-132835295D01*
X184407142Y-132835295D02*
X184407142Y-132978152D01*
X184407142Y-132978152D02*
X184359523Y-133073390D01*
X184359523Y-133073390D02*
X184311904Y-133121009D01*
X184311904Y-133121009D02*
X184216666Y-133168628D01*
X184216666Y-133168628D02*
X183835714Y-133168628D01*
X185359523Y-133644819D02*
X184788095Y-133644819D01*
X185073809Y-133644819D02*
X185073809Y-132644819D01*
X185073809Y-132644819D02*
X184978571Y-132787676D01*
X184978571Y-132787676D02*
X184883333Y-132882914D01*
X184883333Y-132882914D02*
X184788095Y-132930533D01*
X186264285Y-132644819D02*
X185788095Y-132644819D01*
X185788095Y-132644819D02*
X185740476Y-133121009D01*
X185740476Y-133121009D02*
X185788095Y-133073390D01*
X185788095Y-133073390D02*
X185883333Y-133025771D01*
X185883333Y-133025771D02*
X186121428Y-133025771D01*
X186121428Y-133025771D02*
X186216666Y-133073390D01*
X186216666Y-133073390D02*
X186264285Y-133121009D01*
X186264285Y-133121009D02*
X186311904Y-133216247D01*
X186311904Y-133216247D02*
X186311904Y-133454342D01*
X186311904Y-133454342D02*
X186264285Y-133549580D01*
X186264285Y-133549580D02*
X186216666Y-133597200D01*
X186216666Y-133597200D02*
X186121428Y-133644819D01*
X186121428Y-133644819D02*
X185883333Y-133644819D01*
X185883333Y-133644819D02*
X185788095Y-133597200D01*
X185788095Y-133597200D02*
X185740476Y-133549580D01*
X208811905Y-143394819D02*
X208811905Y-142394819D01*
X208811905Y-142394819D02*
X209050000Y-142394819D01*
X209050000Y-142394819D02*
X209192857Y-142442438D01*
X209192857Y-142442438D02*
X209288095Y-142537676D01*
X209288095Y-142537676D02*
X209335714Y-142632914D01*
X209335714Y-142632914D02*
X209383333Y-142823390D01*
X209383333Y-142823390D02*
X209383333Y-142966247D01*
X209383333Y-142966247D02*
X209335714Y-143156723D01*
X209335714Y-143156723D02*
X209288095Y-143251961D01*
X209288095Y-143251961D02*
X209192857Y-143347200D01*
X209192857Y-143347200D02*
X209050000Y-143394819D01*
X209050000Y-143394819D02*
X208811905Y-143394819D01*
X210335714Y-143394819D02*
X209764286Y-143394819D01*
X210050000Y-143394819D02*
X210050000Y-142394819D01*
X210050000Y-142394819D02*
X209954762Y-142537676D01*
X209954762Y-142537676D02*
X209859524Y-142632914D01*
X209859524Y-142632914D02*
X209764286Y-142680533D01*
X221788095Y-144944819D02*
X221788095Y-143944819D01*
X222359523Y-144944819D02*
X221930952Y-144373390D01*
X222359523Y-143944819D02*
X221788095Y-144516247D01*
X209133333Y-140144819D02*
X208800000Y-139668628D01*
X208561905Y-140144819D02*
X208561905Y-139144819D01*
X208561905Y-139144819D02*
X208942857Y-139144819D01*
X208942857Y-139144819D02*
X209038095Y-139192438D01*
X209038095Y-139192438D02*
X209085714Y-139240057D01*
X209085714Y-139240057D02*
X209133333Y-139335295D01*
X209133333Y-139335295D02*
X209133333Y-139478152D01*
X209133333Y-139478152D02*
X209085714Y-139573390D01*
X209085714Y-139573390D02*
X209038095Y-139621009D01*
X209038095Y-139621009D02*
X208942857Y-139668628D01*
X208942857Y-139668628D02*
X208561905Y-139668628D01*
X209609524Y-140144819D02*
X209800000Y-140144819D01*
X209800000Y-140144819D02*
X209895238Y-140097200D01*
X209895238Y-140097200D02*
X209942857Y-140049580D01*
X209942857Y-140049580D02*
X210038095Y-139906723D01*
X210038095Y-139906723D02*
X210085714Y-139716247D01*
X210085714Y-139716247D02*
X210085714Y-139335295D01*
X210085714Y-139335295D02*
X210038095Y-139240057D01*
X210038095Y-139240057D02*
X209990476Y-139192438D01*
X209990476Y-139192438D02*
X209895238Y-139144819D01*
X209895238Y-139144819D02*
X209704762Y-139144819D01*
X209704762Y-139144819D02*
X209609524Y-139192438D01*
X209609524Y-139192438D02*
X209561905Y-139240057D01*
X209561905Y-139240057D02*
X209514286Y-139335295D01*
X209514286Y-139335295D02*
X209514286Y-139573390D01*
X209514286Y-139573390D02*
X209561905Y-139668628D01*
X209561905Y-139668628D02*
X209609524Y-139716247D01*
X209609524Y-139716247D02*
X209704762Y-139763866D01*
X209704762Y-139763866D02*
X209895238Y-139763866D01*
X209895238Y-139763866D02*
X209990476Y-139716247D01*
X209990476Y-139716247D02*
X210038095Y-139668628D01*
X210038095Y-139668628D02*
X210085714Y-139573390D01*
X208907142Y-136894819D02*
X208573809Y-136418628D01*
X208335714Y-136894819D02*
X208335714Y-135894819D01*
X208335714Y-135894819D02*
X208716666Y-135894819D01*
X208716666Y-135894819D02*
X208811904Y-135942438D01*
X208811904Y-135942438D02*
X208859523Y-135990057D01*
X208859523Y-135990057D02*
X208907142Y-136085295D01*
X208907142Y-136085295D02*
X208907142Y-136228152D01*
X208907142Y-136228152D02*
X208859523Y-136323390D01*
X208859523Y-136323390D02*
X208811904Y-136371009D01*
X208811904Y-136371009D02*
X208716666Y-136418628D01*
X208716666Y-136418628D02*
X208335714Y-136418628D01*
X209859523Y-136894819D02*
X209288095Y-136894819D01*
X209573809Y-136894819D02*
X209573809Y-135894819D01*
X209573809Y-135894819D02*
X209478571Y-136037676D01*
X209478571Y-136037676D02*
X209383333Y-136132914D01*
X209383333Y-136132914D02*
X209288095Y-136180533D01*
X210478571Y-135894819D02*
X210573809Y-135894819D01*
X210573809Y-135894819D02*
X210669047Y-135942438D01*
X210669047Y-135942438D02*
X210716666Y-135990057D01*
X210716666Y-135990057D02*
X210764285Y-136085295D01*
X210764285Y-136085295D02*
X210811904Y-136275771D01*
X210811904Y-136275771D02*
X210811904Y-136513866D01*
X210811904Y-136513866D02*
X210764285Y-136704342D01*
X210764285Y-136704342D02*
X210716666Y-136799580D01*
X210716666Y-136799580D02*
X210669047Y-136847200D01*
X210669047Y-136847200D02*
X210573809Y-136894819D01*
X210573809Y-136894819D02*
X210478571Y-136894819D01*
X210478571Y-136894819D02*
X210383333Y-136847200D01*
X210383333Y-136847200D02*
X210335714Y-136799580D01*
X210335714Y-136799580D02*
X210288095Y-136704342D01*
X210288095Y-136704342D02*
X210240476Y-136513866D01*
X210240476Y-136513866D02*
X210240476Y-136275771D01*
X210240476Y-136275771D02*
X210288095Y-136085295D01*
X210288095Y-136085295D02*
X210335714Y-135990057D01*
X210335714Y-135990057D02*
X210383333Y-135942438D01*
X210383333Y-135942438D02*
X210478571Y-135894819D01*
X208907142Y-133644819D02*
X208573809Y-133168628D01*
X208335714Y-133644819D02*
X208335714Y-132644819D01*
X208335714Y-132644819D02*
X208716666Y-132644819D01*
X208716666Y-132644819D02*
X208811904Y-132692438D01*
X208811904Y-132692438D02*
X208859523Y-132740057D01*
X208859523Y-132740057D02*
X208907142Y-132835295D01*
X208907142Y-132835295D02*
X208907142Y-132978152D01*
X208907142Y-132978152D02*
X208859523Y-133073390D01*
X208859523Y-133073390D02*
X208811904Y-133121009D01*
X208811904Y-133121009D02*
X208716666Y-133168628D01*
X208716666Y-133168628D02*
X208335714Y-133168628D01*
X209859523Y-133644819D02*
X209288095Y-133644819D01*
X209573809Y-133644819D02*
X209573809Y-132644819D01*
X209573809Y-132644819D02*
X209478571Y-132787676D01*
X209478571Y-132787676D02*
X209383333Y-132882914D01*
X209383333Y-132882914D02*
X209288095Y-132930533D01*
X210811904Y-133644819D02*
X210240476Y-133644819D01*
X210526190Y-133644819D02*
X210526190Y-132644819D01*
X210526190Y-132644819D02*
X210430952Y-132787676D01*
X210430952Y-132787676D02*
X210335714Y-132882914D01*
X210335714Y-132882914D02*
X210240476Y-132930533D01*
X159907142Y-140144819D02*
X159573809Y-139668628D01*
X159335714Y-140144819D02*
X159335714Y-139144819D01*
X159335714Y-139144819D02*
X159716666Y-139144819D01*
X159716666Y-139144819D02*
X159811904Y-139192438D01*
X159811904Y-139192438D02*
X159859523Y-139240057D01*
X159859523Y-139240057D02*
X159907142Y-139335295D01*
X159907142Y-139335295D02*
X159907142Y-139478152D01*
X159907142Y-139478152D02*
X159859523Y-139573390D01*
X159859523Y-139573390D02*
X159811904Y-139621009D01*
X159811904Y-139621009D02*
X159716666Y-139668628D01*
X159716666Y-139668628D02*
X159335714Y-139668628D01*
X160859523Y-140144819D02*
X160288095Y-140144819D01*
X160573809Y-140144819D02*
X160573809Y-139144819D01*
X160573809Y-139144819D02*
X160478571Y-139287676D01*
X160478571Y-139287676D02*
X160383333Y-139382914D01*
X160383333Y-139382914D02*
X160288095Y-139430533D01*
X161192857Y-139144819D02*
X161859523Y-139144819D01*
X161859523Y-139144819D02*
X161430952Y-140144819D01*
X184407142Y-130144819D02*
X184073809Y-129668628D01*
X183835714Y-130144819D02*
X183835714Y-129144819D01*
X183835714Y-129144819D02*
X184216666Y-129144819D01*
X184216666Y-129144819D02*
X184311904Y-129192438D01*
X184311904Y-129192438D02*
X184359523Y-129240057D01*
X184359523Y-129240057D02*
X184407142Y-129335295D01*
X184407142Y-129335295D02*
X184407142Y-129478152D01*
X184407142Y-129478152D02*
X184359523Y-129573390D01*
X184359523Y-129573390D02*
X184311904Y-129621009D01*
X184311904Y-129621009D02*
X184216666Y-129668628D01*
X184216666Y-129668628D02*
X183835714Y-129668628D01*
X185359523Y-130144819D02*
X184788095Y-130144819D01*
X185073809Y-130144819D02*
X185073809Y-129144819D01*
X185073809Y-129144819D02*
X184978571Y-129287676D01*
X184978571Y-129287676D02*
X184883333Y-129382914D01*
X184883333Y-129382914D02*
X184788095Y-129430533D01*
X186216666Y-129144819D02*
X186026190Y-129144819D01*
X186026190Y-129144819D02*
X185930952Y-129192438D01*
X185930952Y-129192438D02*
X185883333Y-129240057D01*
X185883333Y-129240057D02*
X185788095Y-129382914D01*
X185788095Y-129382914D02*
X185740476Y-129573390D01*
X185740476Y-129573390D02*
X185740476Y-129954342D01*
X185740476Y-129954342D02*
X185788095Y-130049580D01*
X185788095Y-130049580D02*
X185835714Y-130097200D01*
X185835714Y-130097200D02*
X185930952Y-130144819D01*
X185930952Y-130144819D02*
X186121428Y-130144819D01*
X186121428Y-130144819D02*
X186216666Y-130097200D01*
X186216666Y-130097200D02*
X186264285Y-130049580D01*
X186264285Y-130049580D02*
X186311904Y-129954342D01*
X186311904Y-129954342D02*
X186311904Y-129716247D01*
X186311904Y-129716247D02*
X186264285Y-129621009D01*
X186264285Y-129621009D02*
X186216666Y-129573390D01*
X186216666Y-129573390D02*
X186121428Y-129525771D01*
X186121428Y-129525771D02*
X185930952Y-129525771D01*
X185930952Y-129525771D02*
X185835714Y-129573390D01*
X185835714Y-129573390D02*
X185788095Y-129621009D01*
X185788095Y-129621009D02*
X185740476Y-129716247D01*
X159907142Y-137144819D02*
X159573809Y-136668628D01*
X159335714Y-137144819D02*
X159335714Y-136144819D01*
X159335714Y-136144819D02*
X159716666Y-136144819D01*
X159716666Y-136144819D02*
X159811904Y-136192438D01*
X159811904Y-136192438D02*
X159859523Y-136240057D01*
X159859523Y-136240057D02*
X159907142Y-136335295D01*
X159907142Y-136335295D02*
X159907142Y-136478152D01*
X159907142Y-136478152D02*
X159859523Y-136573390D01*
X159859523Y-136573390D02*
X159811904Y-136621009D01*
X159811904Y-136621009D02*
X159716666Y-136668628D01*
X159716666Y-136668628D02*
X159335714Y-136668628D01*
X160859523Y-137144819D02*
X160288095Y-137144819D01*
X160573809Y-137144819D02*
X160573809Y-136144819D01*
X160573809Y-136144819D02*
X160478571Y-136287676D01*
X160478571Y-136287676D02*
X160383333Y-136382914D01*
X160383333Y-136382914D02*
X160288095Y-136430533D01*
X161430952Y-136573390D02*
X161335714Y-136525771D01*
X161335714Y-136525771D02*
X161288095Y-136478152D01*
X161288095Y-136478152D02*
X161240476Y-136382914D01*
X161240476Y-136382914D02*
X161240476Y-136335295D01*
X161240476Y-136335295D02*
X161288095Y-136240057D01*
X161288095Y-136240057D02*
X161335714Y-136192438D01*
X161335714Y-136192438D02*
X161430952Y-136144819D01*
X161430952Y-136144819D02*
X161621428Y-136144819D01*
X161621428Y-136144819D02*
X161716666Y-136192438D01*
X161716666Y-136192438D02*
X161764285Y-136240057D01*
X161764285Y-136240057D02*
X161811904Y-136335295D01*
X161811904Y-136335295D02*
X161811904Y-136382914D01*
X161811904Y-136382914D02*
X161764285Y-136478152D01*
X161764285Y-136478152D02*
X161716666Y-136525771D01*
X161716666Y-136525771D02*
X161621428Y-136573390D01*
X161621428Y-136573390D02*
X161430952Y-136573390D01*
X161430952Y-136573390D02*
X161335714Y-136621009D01*
X161335714Y-136621009D02*
X161288095Y-136668628D01*
X161288095Y-136668628D02*
X161240476Y-136763866D01*
X161240476Y-136763866D02*
X161240476Y-136954342D01*
X161240476Y-136954342D02*
X161288095Y-137049580D01*
X161288095Y-137049580D02*
X161335714Y-137097200D01*
X161335714Y-137097200D02*
X161430952Y-137144819D01*
X161430952Y-137144819D02*
X161621428Y-137144819D01*
X161621428Y-137144819D02*
X161716666Y-137097200D01*
X161716666Y-137097200D02*
X161764285Y-137049580D01*
X161764285Y-137049580D02*
X161811904Y-136954342D01*
X161811904Y-136954342D02*
X161811904Y-136763866D01*
X161811904Y-136763866D02*
X161764285Y-136668628D01*
X161764285Y-136668628D02*
X161716666Y-136621009D01*
X161716666Y-136621009D02*
X161621428Y-136573390D01*
X184407142Y-140144819D02*
X184073809Y-139668628D01*
X183835714Y-140144819D02*
X183835714Y-139144819D01*
X183835714Y-139144819D02*
X184216666Y-139144819D01*
X184216666Y-139144819D02*
X184311904Y-139192438D01*
X184311904Y-139192438D02*
X184359523Y-139240057D01*
X184359523Y-139240057D02*
X184407142Y-139335295D01*
X184407142Y-139335295D02*
X184407142Y-139478152D01*
X184407142Y-139478152D02*
X184359523Y-139573390D01*
X184359523Y-139573390D02*
X184311904Y-139621009D01*
X184311904Y-139621009D02*
X184216666Y-139668628D01*
X184216666Y-139668628D02*
X183835714Y-139668628D01*
X185359523Y-140144819D02*
X184788095Y-140144819D01*
X185073809Y-140144819D02*
X185073809Y-139144819D01*
X185073809Y-139144819D02*
X184978571Y-139287676D01*
X184978571Y-139287676D02*
X184883333Y-139382914D01*
X184883333Y-139382914D02*
X184788095Y-139430533D01*
X185692857Y-139144819D02*
X186311904Y-139144819D01*
X186311904Y-139144819D02*
X185978571Y-139525771D01*
X185978571Y-139525771D02*
X186121428Y-139525771D01*
X186121428Y-139525771D02*
X186216666Y-139573390D01*
X186216666Y-139573390D02*
X186264285Y-139621009D01*
X186264285Y-139621009D02*
X186311904Y-139716247D01*
X186311904Y-139716247D02*
X186311904Y-139954342D01*
X186311904Y-139954342D02*
X186264285Y-140049580D01*
X186264285Y-140049580D02*
X186216666Y-140097200D01*
X186216666Y-140097200D02*
X186121428Y-140144819D01*
X186121428Y-140144819D02*
X185835714Y-140144819D01*
X185835714Y-140144819D02*
X185740476Y-140097200D01*
X185740476Y-140097200D02*
X185692857Y-140049580D01*
X208907142Y-130394819D02*
X208573809Y-129918628D01*
X208335714Y-130394819D02*
X208335714Y-129394819D01*
X208335714Y-129394819D02*
X208716666Y-129394819D01*
X208716666Y-129394819D02*
X208811904Y-129442438D01*
X208811904Y-129442438D02*
X208859523Y-129490057D01*
X208859523Y-129490057D02*
X208907142Y-129585295D01*
X208907142Y-129585295D02*
X208907142Y-129728152D01*
X208907142Y-129728152D02*
X208859523Y-129823390D01*
X208859523Y-129823390D02*
X208811904Y-129871009D01*
X208811904Y-129871009D02*
X208716666Y-129918628D01*
X208716666Y-129918628D02*
X208335714Y-129918628D01*
X209859523Y-130394819D02*
X209288095Y-130394819D01*
X209573809Y-130394819D02*
X209573809Y-129394819D01*
X209573809Y-129394819D02*
X209478571Y-129537676D01*
X209478571Y-129537676D02*
X209383333Y-129632914D01*
X209383333Y-129632914D02*
X209288095Y-129680533D01*
X210240476Y-129490057D02*
X210288095Y-129442438D01*
X210288095Y-129442438D02*
X210383333Y-129394819D01*
X210383333Y-129394819D02*
X210621428Y-129394819D01*
X210621428Y-129394819D02*
X210716666Y-129442438D01*
X210716666Y-129442438D02*
X210764285Y-129490057D01*
X210764285Y-129490057D02*
X210811904Y-129585295D01*
X210811904Y-129585295D02*
X210811904Y-129680533D01*
X210811904Y-129680533D02*
X210764285Y-129823390D01*
X210764285Y-129823390D02*
X210192857Y-130394819D01*
X210192857Y-130394819D02*
X210811904Y-130394819D01*
X184407142Y-136894819D02*
X184073809Y-136418628D01*
X183835714Y-136894819D02*
X183835714Y-135894819D01*
X183835714Y-135894819D02*
X184216666Y-135894819D01*
X184216666Y-135894819D02*
X184311904Y-135942438D01*
X184311904Y-135942438D02*
X184359523Y-135990057D01*
X184359523Y-135990057D02*
X184407142Y-136085295D01*
X184407142Y-136085295D02*
X184407142Y-136228152D01*
X184407142Y-136228152D02*
X184359523Y-136323390D01*
X184359523Y-136323390D02*
X184311904Y-136371009D01*
X184311904Y-136371009D02*
X184216666Y-136418628D01*
X184216666Y-136418628D02*
X183835714Y-136418628D01*
X185359523Y-136894819D02*
X184788095Y-136894819D01*
X185073809Y-136894819D02*
X185073809Y-135894819D01*
X185073809Y-135894819D02*
X184978571Y-136037676D01*
X184978571Y-136037676D02*
X184883333Y-136132914D01*
X184883333Y-136132914D02*
X184788095Y-136180533D01*
X186216666Y-136228152D02*
X186216666Y-136894819D01*
X185978571Y-135847200D02*
X185740476Y-136561485D01*
X185740476Y-136561485D02*
X186359523Y-136561485D01*
X159907142Y-130394819D02*
X159573809Y-129918628D01*
X159335714Y-130394819D02*
X159335714Y-129394819D01*
X159335714Y-129394819D02*
X159716666Y-129394819D01*
X159716666Y-129394819D02*
X159811904Y-129442438D01*
X159811904Y-129442438D02*
X159859523Y-129490057D01*
X159859523Y-129490057D02*
X159907142Y-129585295D01*
X159907142Y-129585295D02*
X159907142Y-129728152D01*
X159907142Y-129728152D02*
X159859523Y-129823390D01*
X159859523Y-129823390D02*
X159811904Y-129871009D01*
X159811904Y-129871009D02*
X159716666Y-129918628D01*
X159716666Y-129918628D02*
X159335714Y-129918628D01*
X160288095Y-129490057D02*
X160335714Y-129442438D01*
X160335714Y-129442438D02*
X160430952Y-129394819D01*
X160430952Y-129394819D02*
X160669047Y-129394819D01*
X160669047Y-129394819D02*
X160764285Y-129442438D01*
X160764285Y-129442438D02*
X160811904Y-129490057D01*
X160811904Y-129490057D02*
X160859523Y-129585295D01*
X160859523Y-129585295D02*
X160859523Y-129680533D01*
X160859523Y-129680533D02*
X160811904Y-129823390D01*
X160811904Y-129823390D02*
X160240476Y-130394819D01*
X160240476Y-130394819D02*
X160859523Y-130394819D01*
X161478571Y-129394819D02*
X161573809Y-129394819D01*
X161573809Y-129394819D02*
X161669047Y-129442438D01*
X161669047Y-129442438D02*
X161716666Y-129490057D01*
X161716666Y-129490057D02*
X161764285Y-129585295D01*
X161764285Y-129585295D02*
X161811904Y-129775771D01*
X161811904Y-129775771D02*
X161811904Y-130013866D01*
X161811904Y-130013866D02*
X161764285Y-130204342D01*
X161764285Y-130204342D02*
X161716666Y-130299580D01*
X161716666Y-130299580D02*
X161669047Y-130347200D01*
X161669047Y-130347200D02*
X161573809Y-130394819D01*
X161573809Y-130394819D02*
X161478571Y-130394819D01*
X161478571Y-130394819D02*
X161383333Y-130347200D01*
X161383333Y-130347200D02*
X161335714Y-130299580D01*
X161335714Y-130299580D02*
X161288095Y-130204342D01*
X161288095Y-130204342D02*
X161240476Y-130013866D01*
X161240476Y-130013866D02*
X161240476Y-129775771D01*
X161240476Y-129775771D02*
X161288095Y-129585295D01*
X161288095Y-129585295D02*
X161335714Y-129490057D01*
X161335714Y-129490057D02*
X161383333Y-129442438D01*
X161383333Y-129442438D02*
X161478571Y-129394819D01*
X159907142Y-133644819D02*
X159573809Y-133168628D01*
X159335714Y-133644819D02*
X159335714Y-132644819D01*
X159335714Y-132644819D02*
X159716666Y-132644819D01*
X159716666Y-132644819D02*
X159811904Y-132692438D01*
X159811904Y-132692438D02*
X159859523Y-132740057D01*
X159859523Y-132740057D02*
X159907142Y-132835295D01*
X159907142Y-132835295D02*
X159907142Y-132978152D01*
X159907142Y-132978152D02*
X159859523Y-133073390D01*
X159859523Y-133073390D02*
X159811904Y-133121009D01*
X159811904Y-133121009D02*
X159716666Y-133168628D01*
X159716666Y-133168628D02*
X159335714Y-133168628D01*
X160859523Y-133644819D02*
X160288095Y-133644819D01*
X160573809Y-133644819D02*
X160573809Y-132644819D01*
X160573809Y-132644819D02*
X160478571Y-132787676D01*
X160478571Y-132787676D02*
X160383333Y-132882914D01*
X160383333Y-132882914D02*
X160288095Y-132930533D01*
X161335714Y-133644819D02*
X161526190Y-133644819D01*
X161526190Y-133644819D02*
X161621428Y-133597200D01*
X161621428Y-133597200D02*
X161669047Y-133549580D01*
X161669047Y-133549580D02*
X161764285Y-133406723D01*
X161764285Y-133406723D02*
X161811904Y-133216247D01*
X161811904Y-133216247D02*
X161811904Y-132835295D01*
X161811904Y-132835295D02*
X161764285Y-132740057D01*
X161764285Y-132740057D02*
X161716666Y-132692438D01*
X161716666Y-132692438D02*
X161621428Y-132644819D01*
X161621428Y-132644819D02*
X161430952Y-132644819D01*
X161430952Y-132644819D02*
X161335714Y-132692438D01*
X161335714Y-132692438D02*
X161288095Y-132740057D01*
X161288095Y-132740057D02*
X161240476Y-132835295D01*
X161240476Y-132835295D02*
X161240476Y-133073390D01*
X161240476Y-133073390D02*
X161288095Y-133168628D01*
X161288095Y-133168628D02*
X161335714Y-133216247D01*
X161335714Y-133216247D02*
X161430952Y-133263866D01*
X161430952Y-133263866D02*
X161621428Y-133263866D01*
X161621428Y-133263866D02*
X161716666Y-133216247D01*
X161716666Y-133216247D02*
X161764285Y-133168628D01*
X161764285Y-133168628D02*
X161811904Y-133073390D01*
X160311905Y-143644819D02*
X160311905Y-142644819D01*
X160311905Y-142644819D02*
X160550000Y-142644819D01*
X160550000Y-142644819D02*
X160692857Y-142692438D01*
X160692857Y-142692438D02*
X160788095Y-142787676D01*
X160788095Y-142787676D02*
X160835714Y-142882914D01*
X160835714Y-142882914D02*
X160883333Y-143073390D01*
X160883333Y-143073390D02*
X160883333Y-143216247D01*
X160883333Y-143216247D02*
X160835714Y-143406723D01*
X160835714Y-143406723D02*
X160788095Y-143501961D01*
X160788095Y-143501961D02*
X160692857Y-143597200D01*
X160692857Y-143597200D02*
X160550000Y-143644819D01*
X160550000Y-143644819D02*
X160311905Y-143644819D01*
X161788095Y-142644819D02*
X161311905Y-142644819D01*
X161311905Y-142644819D02*
X161264286Y-143121009D01*
X161264286Y-143121009D02*
X161311905Y-143073390D01*
X161311905Y-143073390D02*
X161407143Y-143025771D01*
X161407143Y-143025771D02*
X161645238Y-143025771D01*
X161645238Y-143025771D02*
X161740476Y-143073390D01*
X161740476Y-143073390D02*
X161788095Y-143121009D01*
X161788095Y-143121009D02*
X161835714Y-143216247D01*
X161835714Y-143216247D02*
X161835714Y-143454342D01*
X161835714Y-143454342D02*
X161788095Y-143549580D01*
X161788095Y-143549580D02*
X161740476Y-143597200D01*
X161740476Y-143597200D02*
X161645238Y-143644819D01*
X161645238Y-143644819D02*
X161407143Y-143644819D01*
X161407143Y-143644819D02*
X161311905Y-143597200D01*
X161311905Y-143597200D02*
X161264286Y-143549580D01*
X173038095Y-144944819D02*
X173038095Y-143944819D01*
X173609523Y-144944819D02*
X173180952Y-144373390D01*
X173609523Y-143944819D02*
X173038095Y-144516247D01*
X208200208Y-119201191D02*
X208200208Y-121432220D01*
X208200208Y-121432220D02*
X208331445Y-121694694D01*
X208331445Y-121694694D02*
X208462682Y-121825931D01*
X208462682Y-121825931D02*
X208725156Y-121957167D01*
X208725156Y-121957167D02*
X209250104Y-121957167D01*
X209250104Y-121957167D02*
X209512578Y-121825931D01*
X209512578Y-121825931D02*
X209643815Y-121694694D01*
X209643815Y-121694694D02*
X209775052Y-121432220D01*
X209775052Y-121432220D02*
X209775052Y-119201191D01*
X212268554Y-120119850D02*
X212268554Y-121957167D01*
X211612369Y-119069955D02*
X210956184Y-121038509D01*
X210956184Y-121038509D02*
X212662265Y-121038509D01*
X183450208Y-119201191D02*
X183450208Y-121432220D01*
X183450208Y-121432220D02*
X183581445Y-121694694D01*
X183581445Y-121694694D02*
X183712682Y-121825931D01*
X183712682Y-121825931D02*
X183975156Y-121957167D01*
X183975156Y-121957167D02*
X184500104Y-121957167D01*
X184500104Y-121957167D02*
X184762578Y-121825931D01*
X184762578Y-121825931D02*
X184893815Y-121694694D01*
X184893815Y-121694694D02*
X185025052Y-121432220D01*
X185025052Y-121432220D02*
X185025052Y-119201191D01*
X187649791Y-119201191D02*
X186337421Y-119201191D01*
X186337421Y-119201191D02*
X186206184Y-120513561D01*
X186206184Y-120513561D02*
X186337421Y-120382324D01*
X186337421Y-120382324D02*
X186599895Y-120251087D01*
X186599895Y-120251087D02*
X187256080Y-120251087D01*
X187256080Y-120251087D02*
X187518554Y-120382324D01*
X187518554Y-120382324D02*
X187649791Y-120513561D01*
X187649791Y-120513561D02*
X187781028Y-120776035D01*
X187781028Y-120776035D02*
X187781028Y-121432220D01*
X187781028Y-121432220D02*
X187649791Y-121694694D01*
X187649791Y-121694694D02*
X187518554Y-121825931D01*
X187518554Y-121825931D02*
X187256080Y-121957167D01*
X187256080Y-121957167D02*
X186599895Y-121957167D01*
X186599895Y-121957167D02*
X186337421Y-121825931D01*
X186337421Y-121825931D02*
X186206184Y-121694694D01*
X158950208Y-118951191D02*
X158950208Y-121182220D01*
X158950208Y-121182220D02*
X159081445Y-121444694D01*
X159081445Y-121444694D02*
X159212682Y-121575931D01*
X159212682Y-121575931D02*
X159475156Y-121707167D01*
X159475156Y-121707167D02*
X160000104Y-121707167D01*
X160000104Y-121707167D02*
X160262578Y-121575931D01*
X160262578Y-121575931D02*
X160393815Y-121444694D01*
X160393815Y-121444694D02*
X160525052Y-121182220D01*
X160525052Y-121182220D02*
X160525052Y-118951191D01*
X163018554Y-118951191D02*
X162493606Y-118951191D01*
X162493606Y-118951191D02*
X162231132Y-119082428D01*
X162231132Y-119082428D02*
X162099895Y-119213665D01*
X162099895Y-119213665D02*
X161837421Y-119607376D01*
X161837421Y-119607376D02*
X161706184Y-120132324D01*
X161706184Y-120132324D02*
X161706184Y-121182220D01*
X161706184Y-121182220D02*
X161837421Y-121444694D01*
X161837421Y-121444694D02*
X161968658Y-121575931D01*
X161968658Y-121575931D02*
X162231132Y-121707167D01*
X162231132Y-121707167D02*
X162756080Y-121707167D01*
X162756080Y-121707167D02*
X163018554Y-121575931D01*
X163018554Y-121575931D02*
X163149791Y-121444694D01*
X163149791Y-121444694D02*
X163281028Y-121182220D01*
X163281028Y-121182220D02*
X163281028Y-120526035D01*
X163281028Y-120526035D02*
X163149791Y-120263561D01*
X163149791Y-120263561D02*
X163018554Y-120132324D01*
X163018554Y-120132324D02*
X162756080Y-120001087D01*
X162756080Y-120001087D02*
X162231132Y-120001087D01*
X162231132Y-120001087D02*
X161968658Y-120132324D01*
X161968658Y-120132324D02*
X161837421Y-120263561D01*
X161837421Y-120263561D02*
X161706184Y-120526035D01*
X260276666Y-152034819D02*
X259943333Y-151558628D01*
X259705238Y-152034819D02*
X259705238Y-151034819D01*
X259705238Y-151034819D02*
X260086190Y-151034819D01*
X260086190Y-151034819D02*
X260181428Y-151082438D01*
X260181428Y-151082438D02*
X260229047Y-151130057D01*
X260229047Y-151130057D02*
X260276666Y-151225295D01*
X260276666Y-151225295D02*
X260276666Y-151368152D01*
X260276666Y-151368152D02*
X260229047Y-151463390D01*
X260229047Y-151463390D02*
X260181428Y-151511009D01*
X260181428Y-151511009D02*
X260086190Y-151558628D01*
X260086190Y-151558628D02*
X259705238Y-151558628D01*
X260705238Y-151511009D02*
X261038571Y-151511009D01*
X261181428Y-152034819D02*
X260705238Y-152034819D01*
X260705238Y-152034819D02*
X260705238Y-151034819D01*
X260705238Y-151034819D02*
X261181428Y-151034819D01*
X261943333Y-151511009D02*
X261610000Y-151511009D01*
X261610000Y-152034819D02*
X261610000Y-151034819D01*
X261610000Y-151034819D02*
X262086190Y-151034819D01*
X262610000Y-151034819D02*
X262610000Y-151272914D01*
X262371905Y-151177676D02*
X262610000Y-151272914D01*
X262610000Y-151272914D02*
X262848095Y-151177676D01*
X262467143Y-151463390D02*
X262610000Y-151272914D01*
X262610000Y-151272914D02*
X262752857Y-151463390D01*
X263371905Y-151034819D02*
X263371905Y-151272914D01*
X263133810Y-151177676D02*
X263371905Y-151272914D01*
X263371905Y-151272914D02*
X263610000Y-151177676D01*
X263229048Y-151463390D02*
X263371905Y-151272914D01*
X263371905Y-151272914D02*
X263514762Y-151463390D01*
X129559819Y-191618333D02*
X129083628Y-191951666D01*
X129559819Y-192189761D02*
X128559819Y-192189761D01*
X128559819Y-192189761D02*
X128559819Y-191808809D01*
X128559819Y-191808809D02*
X128607438Y-191713571D01*
X128607438Y-191713571D02*
X128655057Y-191665952D01*
X128655057Y-191665952D02*
X128750295Y-191618333D01*
X128750295Y-191618333D02*
X128893152Y-191618333D01*
X128893152Y-191618333D02*
X128988390Y-191665952D01*
X128988390Y-191665952D02*
X129036009Y-191713571D01*
X129036009Y-191713571D02*
X129083628Y-191808809D01*
X129083628Y-191808809D02*
X129083628Y-192189761D01*
X129036009Y-191189761D02*
X129036009Y-190856428D01*
X129559819Y-190713571D02*
X129559819Y-191189761D01*
X129559819Y-191189761D02*
X128559819Y-191189761D01*
X128559819Y-191189761D02*
X128559819Y-190713571D01*
X129036009Y-189951666D02*
X129036009Y-190284999D01*
X129559819Y-190284999D02*
X128559819Y-190284999D01*
X128559819Y-190284999D02*
X128559819Y-189808809D01*
X128559819Y-189284999D02*
X128797914Y-189284999D01*
X128702676Y-189523094D02*
X128797914Y-189284999D01*
X128797914Y-189284999D02*
X128702676Y-189046904D01*
X128988390Y-189427856D02*
X128797914Y-189284999D01*
X128797914Y-189284999D02*
X128988390Y-189142142D01*
X128559819Y-188523094D02*
X128797914Y-188523094D01*
X128702676Y-188761189D02*
X128797914Y-188523094D01*
X128797914Y-188523094D02*
X128702676Y-188284999D01*
X128988390Y-188665951D02*
X128797914Y-188523094D01*
X128797914Y-188523094D02*
X128988390Y-188380237D01*
D12*
X203300000Y-180940000D02*
X159800000Y-180940000D01*
X159800000Y-180940000D02*
X159800000Y-194940000D01*
X159800000Y-194940000D02*
X203300000Y-194940000D01*
X203300000Y-194940000D02*
X203300000Y-180940000D01*
D13*
X248595000Y-197100000D02*
X248595000Y-183100000D01*
X260095000Y-197100000D02*
X248595000Y-197100000D01*
X260095000Y-185100000D02*
X260095000Y-197100000D01*
X248595000Y-183100000D02*
X260095000Y-183100000D01*
X260095000Y-183100000D02*
X260095000Y-183200000D01*
D14*
X248215000Y-195300000D02*
G75*
G03*
X248215000Y-195300000I-170000J0D01*
G01*
D13*
X262395000Y-197100000D02*
X262395000Y-183100000D01*
X273895000Y-197100000D02*
X262395000Y-197100000D01*
X273895000Y-185100000D02*
X273895000Y-197100000D01*
X262395000Y-183100000D02*
X273895000Y-183100000D01*
X273895000Y-183100000D02*
X273895000Y-183200000D01*
D14*
X262015000Y-195300000D02*
G75*
G03*
X262015000Y-195300000I-170000J0D01*
G01*
D13*
X275950000Y-197100000D02*
X275950000Y-183100000D01*
X287450000Y-197100000D02*
X275950000Y-197100000D01*
X287450000Y-185100000D02*
X287450000Y-197100000D01*
X275950000Y-183100000D02*
X287450000Y-183100000D01*
X287450000Y-183100000D02*
X287450000Y-183200000D01*
D14*
X275570000Y-195300000D02*
G75*
G03*
X275570000Y-195300000I-170000J0D01*
G01*
D15*
X243550000Y-192400000D02*
X243550000Y-191750000D01*
X242430000Y-191750000D02*
X244670000Y-191750000D01*
X244670000Y-191750000D02*
X244670000Y-187510000D01*
X242430000Y-191150000D02*
X244670000Y-191150000D01*
X242430000Y-191030000D02*
X244670000Y-191030000D01*
X242430000Y-190910000D02*
X244670000Y-190910000D01*
X242430000Y-187510000D02*
X242430000Y-191750000D01*
X244670000Y-187510000D02*
X242430000Y-187510000D01*
X243550000Y-186860000D02*
X243550000Y-187510000D01*
X240550000Y-173000000D02*
X240550000Y-172010000D01*
X238630000Y-172010000D02*
X242470000Y-172010000D01*
X242470000Y-172010000D02*
X242470000Y-164170000D01*
X238630000Y-170870000D02*
X242470000Y-170870000D01*
X238630000Y-170750000D02*
X242470000Y-170750000D01*
X238630000Y-170630000D02*
X242470000Y-170630000D01*
X238630000Y-164170000D02*
X238630000Y-172010000D01*
X242470000Y-164170000D02*
X238630000Y-164170000D01*
X240550000Y-163180000D02*
X240550000Y-164170000D01*
X239040000Y-149290000D02*
X242640000Y-149290000D01*
X240840000Y-144840001D02*
G75*
G03*
X238483601Y-146341193I0J-2599999D01*
G01*
X238515817Y-148562795D02*
G75*
G03*
X239040001Y-149289999I2324183J1122795D01*
G01*
X243196400Y-146341193D02*
G75*
G03*
X240840000Y-144840000I-2356400J-1098807D01*
G01*
X242639999Y-149289999D02*
G75*
G03*
X243164183Y-148562795I-1799999J1849999D01*
G01*
X283449999Y-148515001D02*
X283449999Y-149285001D01*
X284819999Y-149285001D02*
X282079999Y-149285001D01*
X282079999Y-149285001D02*
X282079999Y-155825001D01*
X284819999Y-155825001D02*
X284819999Y-149285001D01*
X282079999Y-155825001D02*
X284819999Y-155825001D01*
X283449999Y-156595001D02*
X283449999Y-155825001D01*
X280005000Y-156650000D02*
X280005000Y-155880000D01*
X278635000Y-155880000D02*
X281375000Y-155880000D01*
X281375000Y-155880000D02*
X281375000Y-149340000D01*
X278635000Y-149340000D02*
X278635000Y-155880000D01*
X281375000Y-149340000D02*
X278635000Y-149340000D01*
X280005000Y-148570000D02*
X280005000Y-149340000D01*
X245010000Y-151690000D02*
X244240000Y-151690000D01*
X244240000Y-153060000D02*
X244240000Y-150320000D01*
X244240000Y-150320000D02*
X237700000Y-150320000D01*
X237700000Y-153060000D02*
X244240000Y-153060000D01*
X237700000Y-150320000D02*
X237700000Y-153060000D01*
X236930000Y-151690000D02*
X237700000Y-151690000D01*
X293910000Y-169910000D02*
X293910000Y-169140000D01*
X292540000Y-169140000D02*
X295280000Y-169140000D01*
X295280000Y-169140000D02*
X295280000Y-162600000D01*
X292540000Y-162600000D02*
X292540000Y-169140000D01*
X295280000Y-162600000D02*
X292540000Y-162600000D01*
X293910000Y-161830000D02*
X293910000Y-162600000D01*
X290510000Y-161830000D02*
X290510000Y-162600000D01*
X291880000Y-162600000D02*
X289140000Y-162600000D01*
X289140000Y-162600000D02*
X289140000Y-169140000D01*
X291880000Y-169140000D02*
X291880000Y-162600000D01*
X289140000Y-169140000D02*
X291880000Y-169140000D01*
X290510000Y-169910000D02*
X290510000Y-169140000D01*
X286715000Y-174190000D02*
X285945000Y-174190000D01*
X285945000Y-175560000D02*
X285945000Y-172820000D01*
X285945000Y-172820000D02*
X279405000Y-172820000D01*
X279405000Y-175560000D02*
X285945000Y-175560000D01*
X279405000Y-172820000D02*
X279405000Y-175560000D01*
X278635000Y-174190000D02*
X279405000Y-174190000D01*
X276640000Y-148570000D02*
X276640000Y-149340000D01*
X278010000Y-149340000D02*
X275270000Y-149340000D01*
X275270000Y-149340000D02*
X275270000Y-155880000D01*
X278010000Y-155880000D02*
X278010000Y-149340000D01*
X275270000Y-155880000D02*
X278010000Y-155880000D01*
X276640000Y-156650000D02*
X276640000Y-155880000D01*
X273255000Y-156650000D02*
X273255000Y-155880000D01*
X271885000Y-155880000D02*
X274625000Y-155880000D01*
X274625000Y-155880000D02*
X274625000Y-149340000D01*
X271885000Y-149340000D02*
X271885000Y-155880000D01*
X274625000Y-149340000D02*
X271885000Y-149340000D01*
X273255000Y-148570000D02*
X273255000Y-149340000D01*
X157370000Y-172620000D02*
X180230000Y-172620000D01*
X180230000Y-172620000D02*
X180230000Y-149760000D01*
X157370000Y-149760000D02*
X157370000Y-172620000D01*
X180230000Y-149760000D02*
X157370000Y-149760000D01*
X205370000Y-172620000D02*
X228230000Y-172620000D01*
X228230000Y-172620000D02*
X228230000Y-149760000D01*
X205370000Y-149760000D02*
X205370000Y-172620000D01*
X228230000Y-149760000D02*
X205370000Y-149760000D01*
X181370000Y-172620000D02*
X204230000Y-172620000D01*
X204230000Y-172620000D02*
X204230000Y-149760000D01*
X181370000Y-149760000D02*
X181370000Y-172620000D01*
X204230000Y-149760000D02*
X181370000Y-149760000D01*
X280165000Y-161860000D02*
X280165000Y-172140000D01*
X280165000Y-172140000D02*
X285465000Y-172140000D01*
X281815000Y-161860000D02*
X280165000Y-161860000D01*
X285465000Y-161860000D02*
X283815000Y-161860000D01*
X285465000Y-172140000D02*
X285465000Y-161860000D01*
X281815000Y-161860000D02*
G75*
G03*
X283815000Y-161860000I1000000J0D01*
G01*
X270255000Y-155650000D02*
X270255000Y-155000000D01*
X269135000Y-155000000D02*
X271375000Y-155000000D01*
X271375000Y-155000000D02*
X271375000Y-150760000D01*
X269135000Y-154400000D02*
X271375000Y-154400000D01*
X269135000Y-154280000D02*
X271375000Y-154280000D01*
X269135000Y-154160000D02*
X271375000Y-154160000D01*
X269135000Y-150760000D02*
X269135000Y-155000000D01*
X271375000Y-150760000D02*
X269135000Y-150760000D01*
X270255000Y-150110000D02*
X270255000Y-150760000D01*
X254970000Y-161440000D02*
G75*
G03*
X254970000Y-161440000I-4470000J0D01*
G01*
X272480000Y-167135225D02*
X272480000Y-167635225D01*
X272730000Y-167385225D02*
X272230000Y-167385225D01*
X273585000Y-169940000D02*
X268425000Y-169940000D01*
X273585000Y-169980000D02*
X268425000Y-169980000D01*
X273584000Y-170020000D02*
X268426000Y-170020000D01*
X273583000Y-170060000D02*
X268427000Y-170060000D01*
X273581000Y-170100000D02*
X268429000Y-170100000D01*
X273578000Y-170140000D02*
X268432000Y-170140000D01*
X273574000Y-170180000D02*
X272045000Y-170180000D01*
X269965000Y-170180000D02*
X268436000Y-170180000D01*
X273570000Y-170220000D02*
X272045000Y-170220000D01*
X269965000Y-170220000D02*
X268440000Y-170220000D01*
X273566000Y-170260000D02*
X272045000Y-170260000D01*
X269965000Y-170260000D02*
X268444000Y-170260000D01*
X273561000Y-170300000D02*
X272045000Y-170300000D01*
X269965000Y-170300000D02*
X268449000Y-170300000D01*
X273555000Y-170340000D02*
X272045000Y-170340000D01*
X269965000Y-170340000D02*
X268455000Y-170340000D01*
X273548000Y-170380000D02*
X272045000Y-170380000D01*
X269965000Y-170380000D02*
X268462000Y-170380000D01*
X273541000Y-170420000D02*
X272045000Y-170420000D01*
X269965000Y-170420000D02*
X268469000Y-170420000D01*
X273533000Y-170460000D02*
X272045000Y-170460000D01*
X269965000Y-170460000D02*
X268477000Y-170460000D01*
X273525000Y-170500000D02*
X272045000Y-170500000D01*
X269965000Y-170500000D02*
X268485000Y-170500000D01*
X273516000Y-170540000D02*
X272045000Y-170540000D01*
X269965000Y-170540000D02*
X268494000Y-170540000D01*
X273506000Y-170580000D02*
X272045000Y-170580000D01*
X269965000Y-170580000D02*
X268504000Y-170580000D01*
X273496000Y-170620000D02*
X272045000Y-170620000D01*
X269965000Y-170620000D02*
X268514000Y-170620000D01*
X273485000Y-170661000D02*
X272045000Y-170661000D01*
X269965000Y-170661000D02*
X268525000Y-170661000D01*
X273473000Y-170701000D02*
X272045000Y-170701000D01*
X269965000Y-170701000D02*
X268537000Y-170701000D01*
X273460000Y-170741000D02*
X272045000Y-170741000D01*
X269965000Y-170741000D02*
X268550000Y-170741000D01*
X273447000Y-170781000D02*
X272045000Y-170781000D01*
X269965000Y-170781000D02*
X268563000Y-170781000D01*
X273433000Y-170821000D02*
X272045000Y-170821000D01*
X269965000Y-170821000D02*
X268577000Y-170821000D01*
X273419000Y-170861000D02*
X272045000Y-170861000D01*
X269965000Y-170861000D02*
X268591000Y-170861000D01*
X273403000Y-170901000D02*
X272045000Y-170901000D01*
X269965000Y-170901000D02*
X268607000Y-170901000D01*
X273387000Y-170941000D02*
X272045000Y-170941000D01*
X269965000Y-170941000D02*
X268623000Y-170941000D01*
X273370000Y-170981000D02*
X272045000Y-170981000D01*
X269965000Y-170981000D02*
X268640000Y-170981000D01*
X273353000Y-171021000D02*
X272045000Y-171021000D01*
X269965000Y-171021000D02*
X268657000Y-171021000D01*
X273334000Y-171061000D02*
X272045000Y-171061000D01*
X269965000Y-171061000D02*
X268676000Y-171061000D01*
X273315000Y-171101000D02*
X272045000Y-171101000D01*
X269965000Y-171101000D02*
X268695000Y-171101000D01*
X273295000Y-171141000D02*
X272045000Y-171141000D01*
X269965000Y-171141000D02*
X268715000Y-171141000D01*
X273273000Y-171181000D02*
X272045000Y-171181000D01*
X269965000Y-171181000D02*
X268737000Y-171181000D01*
X273252000Y-171221000D02*
X272045000Y-171221000D01*
X269965000Y-171221000D02*
X268758000Y-171221000D01*
X273229000Y-171261000D02*
X272045000Y-171261000D01*
X269965000Y-171261000D02*
X268781000Y-171261000D01*
X273205000Y-171301000D02*
X272045000Y-171301000D01*
X269965000Y-171301000D02*
X268805000Y-171301000D01*
X273180000Y-171341000D02*
X272045000Y-171341000D01*
X269965000Y-171341000D02*
X268830000Y-171341000D01*
X273154000Y-171381000D02*
X272045000Y-171381000D01*
X269965000Y-171381000D02*
X268856000Y-171381000D01*
X273127000Y-171421000D02*
X272045000Y-171421000D01*
X269965000Y-171421000D02*
X268883000Y-171421000D01*
X273100000Y-171461000D02*
X272045000Y-171461000D01*
X269965000Y-171461000D02*
X268910000Y-171461000D01*
X273070000Y-171501000D02*
X272045000Y-171501000D01*
X269965000Y-171501000D02*
X268940000Y-171501000D01*
X273040000Y-171541000D02*
X272045000Y-171541000D01*
X269965000Y-171541000D02*
X268970000Y-171541000D01*
X273009000Y-171581000D02*
X272045000Y-171581000D01*
X269965000Y-171581000D02*
X269001000Y-171581000D01*
X272976000Y-171621000D02*
X272045000Y-171621000D01*
X269965000Y-171621000D02*
X269034000Y-171621000D01*
X272942000Y-171661000D02*
X272045000Y-171661000D01*
X269965000Y-171661000D02*
X269068000Y-171661000D01*
X272906000Y-171701000D02*
X272045000Y-171701000D01*
X269965000Y-171701000D02*
X269104000Y-171701000D01*
X272869000Y-171741000D02*
X272045000Y-171741000D01*
X269965000Y-171741000D02*
X269141000Y-171741000D01*
X272831000Y-171781000D02*
X272045000Y-171781000D01*
X269965000Y-171781000D02*
X269179000Y-171781000D01*
X272790000Y-171821000D02*
X272045000Y-171821000D01*
X269965000Y-171821000D02*
X269220000Y-171821000D01*
X272748000Y-171861000D02*
X272045000Y-171861000D01*
X269965000Y-171861000D02*
X269262000Y-171861000D01*
X272704000Y-171901000D02*
X272045000Y-171901000D01*
X269965000Y-171901000D02*
X269306000Y-171901000D01*
X272658000Y-171941000D02*
X272045000Y-171941000D01*
X269965000Y-171941000D02*
X269352000Y-171941000D01*
X272610000Y-171981000D02*
X272045000Y-171981000D01*
X269965000Y-171981000D02*
X269400000Y-171981000D01*
X272559000Y-172021000D02*
X272045000Y-172021000D01*
X269965000Y-172021000D02*
X269451000Y-172021000D01*
X272505000Y-172061000D02*
X272045000Y-172061000D01*
X269965000Y-172061000D02*
X269505000Y-172061000D01*
X272448000Y-172101000D02*
X272045000Y-172101000D01*
X269965000Y-172101000D02*
X269562000Y-172101000D01*
X272388000Y-172141000D02*
X272045000Y-172141000D01*
X269965000Y-172141000D02*
X269622000Y-172141000D01*
X272324000Y-172181000D02*
X272045000Y-172181000D01*
X269965000Y-172181000D02*
X269686000Y-172181000D01*
X272256000Y-172221000D02*
X272045000Y-172221000D01*
X269965000Y-172221000D02*
X269754000Y-172221000D01*
X272183000Y-172261000D02*
X269827000Y-172261000D01*
X272103000Y-172301000D02*
X269907000Y-172301000D01*
X272016000Y-172341000D02*
X269994000Y-172341000D01*
X271920000Y-172381000D02*
X270090000Y-172381000D01*
X271810000Y-172421000D02*
X270200000Y-172421000D01*
X271682000Y-172461000D02*
X270328000Y-172461000D01*
X271523000Y-172501000D02*
X270487000Y-172501000D01*
X271289000Y-172541000D02*
X270721000Y-172541000D01*
X273625000Y-169940000D02*
G75*
G03*
X273625000Y-169940000I-2620000J0D01*
G01*
X253275000Y-168135225D02*
X253275000Y-168635225D01*
X253525000Y-168385225D02*
X253025000Y-168385225D01*
X254380000Y-170940000D02*
X249220000Y-170940000D01*
X254380000Y-170980000D02*
X249220000Y-170980000D01*
X254379000Y-171020000D02*
X249221000Y-171020000D01*
X254378000Y-171060000D02*
X249222000Y-171060000D01*
X254376000Y-171100000D02*
X249224000Y-171100000D01*
X254373000Y-171140000D02*
X249227000Y-171140000D01*
X254369000Y-171180000D02*
X252840000Y-171180000D01*
X250760000Y-171180000D02*
X249231000Y-171180000D01*
X254365000Y-171220000D02*
X252840000Y-171220000D01*
X250760000Y-171220000D02*
X249235000Y-171220000D01*
X254361000Y-171260000D02*
X252840000Y-171260000D01*
X250760000Y-171260000D02*
X249239000Y-171260000D01*
X254356000Y-171300000D02*
X252840000Y-171300000D01*
X250760000Y-171300000D02*
X249244000Y-171300000D01*
X254350000Y-171340000D02*
X252840000Y-171340000D01*
X250760000Y-171340000D02*
X249250000Y-171340000D01*
X254343000Y-171380000D02*
X252840000Y-171380000D01*
X250760000Y-171380000D02*
X249257000Y-171380000D01*
X254336000Y-171420000D02*
X252840000Y-171420000D01*
X250760000Y-171420000D02*
X249264000Y-171420000D01*
X254328000Y-171460000D02*
X252840000Y-171460000D01*
X250760000Y-171460000D02*
X249272000Y-171460000D01*
X254320000Y-171500000D02*
X252840000Y-171500000D01*
X250760000Y-171500000D02*
X249280000Y-171500000D01*
X254311000Y-171540000D02*
X252840000Y-171540000D01*
X250760000Y-171540000D02*
X249289000Y-171540000D01*
X254301000Y-171580000D02*
X252840000Y-171580000D01*
X250760000Y-171580000D02*
X249299000Y-171580000D01*
X254291000Y-171620000D02*
X252840000Y-171620000D01*
X250760000Y-171620000D02*
X249309000Y-171620000D01*
X254280000Y-171661000D02*
X252840000Y-171661000D01*
X250760000Y-171661000D02*
X249320000Y-171661000D01*
X254268000Y-171701000D02*
X252840000Y-171701000D01*
X250760000Y-171701000D02*
X249332000Y-171701000D01*
X254255000Y-171741000D02*
X252840000Y-171741000D01*
X250760000Y-171741000D02*
X249345000Y-171741000D01*
X254242000Y-171781000D02*
X252840000Y-171781000D01*
X250760000Y-171781000D02*
X249358000Y-171781000D01*
X254228000Y-171821000D02*
X252840000Y-171821000D01*
X250760000Y-171821000D02*
X249372000Y-171821000D01*
X254214000Y-171861000D02*
X252840000Y-171861000D01*
X250760000Y-171861000D02*
X249386000Y-171861000D01*
X254198000Y-171901000D02*
X252840000Y-171901000D01*
X250760000Y-171901000D02*
X249402000Y-171901000D01*
X254182000Y-171941000D02*
X252840000Y-171941000D01*
X250760000Y-171941000D02*
X249418000Y-171941000D01*
X254165000Y-171981000D02*
X252840000Y-171981000D01*
X250760000Y-171981000D02*
X249435000Y-171981000D01*
X254148000Y-172021000D02*
X252840000Y-172021000D01*
X250760000Y-172021000D02*
X249452000Y-172021000D01*
X254129000Y-172061000D02*
X252840000Y-172061000D01*
X250760000Y-172061000D02*
X249471000Y-172061000D01*
X254110000Y-172101000D02*
X252840000Y-172101000D01*
X250760000Y-172101000D02*
X249490000Y-172101000D01*
X254090000Y-172141000D02*
X252840000Y-172141000D01*
X250760000Y-172141000D02*
X249510000Y-172141000D01*
X254068000Y-172181000D02*
X252840000Y-172181000D01*
X250760000Y-172181000D02*
X249532000Y-172181000D01*
X254047000Y-172221000D02*
X252840000Y-172221000D01*
X250760000Y-172221000D02*
X249553000Y-172221000D01*
X254024000Y-172261000D02*
X252840000Y-172261000D01*
X250760000Y-172261000D02*
X249576000Y-172261000D01*
X254000000Y-172301000D02*
X252840000Y-172301000D01*
X250760000Y-172301000D02*
X249600000Y-172301000D01*
X253975000Y-172341000D02*
X252840000Y-172341000D01*
X250760000Y-172341000D02*
X249625000Y-172341000D01*
X253949000Y-172381000D02*
X252840000Y-172381000D01*
X250760000Y-172381000D02*
X249651000Y-172381000D01*
X253922000Y-172421000D02*
X252840000Y-172421000D01*
X250760000Y-172421000D02*
X249678000Y-172421000D01*
X253895000Y-172461000D02*
X252840000Y-172461000D01*
X250760000Y-172461000D02*
X249705000Y-172461000D01*
X253865000Y-172501000D02*
X252840000Y-172501000D01*
X250760000Y-172501000D02*
X249735000Y-172501000D01*
X253835000Y-172541000D02*
X252840000Y-172541000D01*
X250760000Y-172541000D02*
X249765000Y-172541000D01*
X253804000Y-172581000D02*
X252840000Y-172581000D01*
X250760000Y-172581000D02*
X249796000Y-172581000D01*
X253771000Y-172621000D02*
X252840000Y-172621000D01*
X250760000Y-172621000D02*
X249829000Y-172621000D01*
X253737000Y-172661000D02*
X252840000Y-172661000D01*
X250760000Y-172661000D02*
X249863000Y-172661000D01*
X253701000Y-172701000D02*
X252840000Y-172701000D01*
X250760000Y-172701000D02*
X249899000Y-172701000D01*
X253664000Y-172741000D02*
X252840000Y-172741000D01*
X250760000Y-172741000D02*
X249936000Y-172741000D01*
X253626000Y-172781000D02*
X252840000Y-172781000D01*
X250760000Y-172781000D02*
X249974000Y-172781000D01*
X253585000Y-172821000D02*
X252840000Y-172821000D01*
X250760000Y-172821000D02*
X250015000Y-172821000D01*
X253543000Y-172861000D02*
X252840000Y-172861000D01*
X250760000Y-172861000D02*
X250057000Y-172861000D01*
X253499000Y-172901000D02*
X252840000Y-172901000D01*
X250760000Y-172901000D02*
X250101000Y-172901000D01*
X253453000Y-172941000D02*
X252840000Y-172941000D01*
X250760000Y-172941000D02*
X250147000Y-172941000D01*
X253405000Y-172981000D02*
X252840000Y-172981000D01*
X250760000Y-172981000D02*
X250195000Y-172981000D01*
X253354000Y-173021000D02*
X252840000Y-173021000D01*
X250760000Y-173021000D02*
X250246000Y-173021000D01*
X253300000Y-173061000D02*
X252840000Y-173061000D01*
X250760000Y-173061000D02*
X250300000Y-173061000D01*
X253243000Y-173101000D02*
X252840000Y-173101000D01*
X250760000Y-173101000D02*
X250357000Y-173101000D01*
X253183000Y-173141000D02*
X252840000Y-173141000D01*
X250760000Y-173141000D02*
X250417000Y-173141000D01*
X253119000Y-173181000D02*
X252840000Y-173181000D01*
X250760000Y-173181000D02*
X250481000Y-173181000D01*
X253051000Y-173221000D02*
X252840000Y-173221000D01*
X250760000Y-173221000D02*
X250549000Y-173221000D01*
X252978000Y-173261000D02*
X250622000Y-173261000D01*
X252898000Y-173301000D02*
X250702000Y-173301000D01*
X252811000Y-173341000D02*
X250789000Y-173341000D01*
X252715000Y-173381000D02*
X250885000Y-173381000D01*
X252605000Y-173421000D02*
X250995000Y-173421000D01*
X252477000Y-173461000D02*
X251123000Y-173461000D01*
X252318000Y-173501000D02*
X251282000Y-173501000D01*
X252084000Y-173541000D02*
X251516000Y-173541000D01*
X254420000Y-170940000D02*
G75*
G03*
X254420000Y-170940000I-2620000J0D01*
G01*
X272480000Y-160885225D02*
X272480000Y-161385225D01*
X272730000Y-161135225D02*
X272230000Y-161135225D01*
X273585000Y-163690000D02*
X268425000Y-163690000D01*
X273585000Y-163730000D02*
X268425000Y-163730000D01*
X273584000Y-163770000D02*
X268426000Y-163770000D01*
X273583000Y-163810000D02*
X268427000Y-163810000D01*
X273581000Y-163850000D02*
X268429000Y-163850000D01*
X273578000Y-163890000D02*
X268432000Y-163890000D01*
X273574000Y-163930000D02*
X272045000Y-163930000D01*
X269965000Y-163930000D02*
X268436000Y-163930000D01*
X273570000Y-163970000D02*
X272045000Y-163970000D01*
X269965000Y-163970000D02*
X268440000Y-163970000D01*
X273566000Y-164010000D02*
X272045000Y-164010000D01*
X269965000Y-164010000D02*
X268444000Y-164010000D01*
X273561000Y-164050000D02*
X272045000Y-164050000D01*
X269965000Y-164050000D02*
X268449000Y-164050000D01*
X273555000Y-164090000D02*
X272045000Y-164090000D01*
X269965000Y-164090000D02*
X268455000Y-164090000D01*
X273548000Y-164130000D02*
X272045000Y-164130000D01*
X269965000Y-164130000D02*
X268462000Y-164130000D01*
X273541000Y-164170000D02*
X272045000Y-164170000D01*
X269965000Y-164170000D02*
X268469000Y-164170000D01*
X273533000Y-164210000D02*
X272045000Y-164210000D01*
X269965000Y-164210000D02*
X268477000Y-164210000D01*
X273525000Y-164250000D02*
X272045000Y-164250000D01*
X269965000Y-164250000D02*
X268485000Y-164250000D01*
X273516000Y-164290000D02*
X272045000Y-164290000D01*
X269965000Y-164290000D02*
X268494000Y-164290000D01*
X273506000Y-164330000D02*
X272045000Y-164330000D01*
X269965000Y-164330000D02*
X268504000Y-164330000D01*
X273496000Y-164370000D02*
X272045000Y-164370000D01*
X269965000Y-164370000D02*
X268514000Y-164370000D01*
X273485000Y-164411000D02*
X272045000Y-164411000D01*
X269965000Y-164411000D02*
X268525000Y-164411000D01*
X273473000Y-164451000D02*
X272045000Y-164451000D01*
X269965000Y-164451000D02*
X268537000Y-164451000D01*
X273460000Y-164491000D02*
X272045000Y-164491000D01*
X269965000Y-164491000D02*
X268550000Y-164491000D01*
X273447000Y-164531000D02*
X272045000Y-164531000D01*
X269965000Y-164531000D02*
X268563000Y-164531000D01*
X273433000Y-164571000D02*
X272045000Y-164571000D01*
X269965000Y-164571000D02*
X268577000Y-164571000D01*
X273419000Y-164611000D02*
X272045000Y-164611000D01*
X269965000Y-164611000D02*
X268591000Y-164611000D01*
X273403000Y-164651000D02*
X272045000Y-164651000D01*
X269965000Y-164651000D02*
X268607000Y-164651000D01*
X273387000Y-164691000D02*
X272045000Y-164691000D01*
X269965000Y-164691000D02*
X268623000Y-164691000D01*
X273370000Y-164731000D02*
X272045000Y-164731000D01*
X269965000Y-164731000D02*
X268640000Y-164731000D01*
X273353000Y-164771000D02*
X272045000Y-164771000D01*
X269965000Y-164771000D02*
X268657000Y-164771000D01*
X273334000Y-164811000D02*
X272045000Y-164811000D01*
X269965000Y-164811000D02*
X268676000Y-164811000D01*
X273315000Y-164851000D02*
X272045000Y-164851000D01*
X269965000Y-164851000D02*
X268695000Y-164851000D01*
X273295000Y-164891000D02*
X272045000Y-164891000D01*
X269965000Y-164891000D02*
X268715000Y-164891000D01*
X273273000Y-164931000D02*
X272045000Y-164931000D01*
X269965000Y-164931000D02*
X268737000Y-164931000D01*
X273252000Y-164971000D02*
X272045000Y-164971000D01*
X269965000Y-164971000D02*
X268758000Y-164971000D01*
X273229000Y-165011000D02*
X272045000Y-165011000D01*
X269965000Y-165011000D02*
X268781000Y-165011000D01*
X273205000Y-165051000D02*
X272045000Y-165051000D01*
X269965000Y-165051000D02*
X268805000Y-165051000D01*
X273180000Y-165091000D02*
X272045000Y-165091000D01*
X269965000Y-165091000D02*
X268830000Y-165091000D01*
X273154000Y-165131000D02*
X272045000Y-165131000D01*
X269965000Y-165131000D02*
X268856000Y-165131000D01*
X273127000Y-165171000D02*
X272045000Y-165171000D01*
X269965000Y-165171000D02*
X268883000Y-165171000D01*
X273100000Y-165211000D02*
X272045000Y-165211000D01*
X269965000Y-165211000D02*
X268910000Y-165211000D01*
X273070000Y-165251000D02*
X272045000Y-165251000D01*
X269965000Y-165251000D02*
X268940000Y-165251000D01*
X273040000Y-165291000D02*
X272045000Y-165291000D01*
X269965000Y-165291000D02*
X268970000Y-165291000D01*
X273009000Y-165331000D02*
X272045000Y-165331000D01*
X269965000Y-165331000D02*
X269001000Y-165331000D01*
X272976000Y-165371000D02*
X272045000Y-165371000D01*
X269965000Y-165371000D02*
X269034000Y-165371000D01*
X272942000Y-165411000D02*
X272045000Y-165411000D01*
X269965000Y-165411000D02*
X269068000Y-165411000D01*
X272906000Y-165451000D02*
X272045000Y-165451000D01*
X269965000Y-165451000D02*
X269104000Y-165451000D01*
X272869000Y-165491000D02*
X272045000Y-165491000D01*
X269965000Y-165491000D02*
X269141000Y-165491000D01*
X272831000Y-165531000D02*
X272045000Y-165531000D01*
X269965000Y-165531000D02*
X269179000Y-165531000D01*
X272790000Y-165571000D02*
X272045000Y-165571000D01*
X269965000Y-165571000D02*
X269220000Y-165571000D01*
X272748000Y-165611000D02*
X272045000Y-165611000D01*
X269965000Y-165611000D02*
X269262000Y-165611000D01*
X272704000Y-165651000D02*
X272045000Y-165651000D01*
X269965000Y-165651000D02*
X269306000Y-165651000D01*
X272658000Y-165691000D02*
X272045000Y-165691000D01*
X269965000Y-165691000D02*
X269352000Y-165691000D01*
X272610000Y-165731000D02*
X272045000Y-165731000D01*
X269965000Y-165731000D02*
X269400000Y-165731000D01*
X272559000Y-165771000D02*
X272045000Y-165771000D01*
X269965000Y-165771000D02*
X269451000Y-165771000D01*
X272505000Y-165811000D02*
X272045000Y-165811000D01*
X269965000Y-165811000D02*
X269505000Y-165811000D01*
X272448000Y-165851000D02*
X272045000Y-165851000D01*
X269965000Y-165851000D02*
X269562000Y-165851000D01*
X272388000Y-165891000D02*
X272045000Y-165891000D01*
X269965000Y-165891000D02*
X269622000Y-165891000D01*
X272324000Y-165931000D02*
X272045000Y-165931000D01*
X269965000Y-165931000D02*
X269686000Y-165931000D01*
X272256000Y-165971000D02*
X272045000Y-165971000D01*
X269965000Y-165971000D02*
X269754000Y-165971000D01*
X272183000Y-166011000D02*
X269827000Y-166011000D01*
X272103000Y-166051000D02*
X269907000Y-166051000D01*
X272016000Y-166091000D02*
X269994000Y-166091000D01*
X271920000Y-166131000D02*
X270090000Y-166131000D01*
X271810000Y-166171000D02*
X270200000Y-166171000D01*
X271682000Y-166211000D02*
X270328000Y-166211000D01*
X271523000Y-166251000D02*
X270487000Y-166251000D01*
X271289000Y-166291000D02*
X270721000Y-166291000D01*
X273625000Y-163690000D02*
G75*
G03*
X273625000Y-163690000I-2620000J0D01*
G01*
X196510000Y-142690000D02*
X195860000Y-142690000D01*
X195860000Y-143810000D02*
X195860000Y-141570000D01*
X195860000Y-141570000D02*
X191620000Y-141570000D01*
X195260000Y-143810000D02*
X195260000Y-141570000D01*
X195140000Y-143810000D02*
X195140000Y-141570000D01*
X195020000Y-143810000D02*
X195020000Y-141570000D01*
X191620000Y-143810000D02*
X195860000Y-143810000D01*
X191620000Y-141570000D02*
X191620000Y-143810000D01*
X190970000Y-142690000D02*
X191620000Y-142690000D01*
X189840000Y-133190000D02*
X190610000Y-133190000D01*
X190610000Y-131820000D02*
X190610000Y-134560000D01*
X190610000Y-134560000D02*
X197150000Y-134560000D01*
X197150000Y-131820000D02*
X190610000Y-131820000D01*
X197150000Y-134560000D02*
X197150000Y-131820000D01*
X197920000Y-133190000D02*
X197150000Y-133190000D01*
X221010000Y-142690000D02*
X220360000Y-142690000D01*
X220360000Y-143810000D02*
X220360000Y-141570000D01*
X220360000Y-141570000D02*
X216120000Y-141570000D01*
X219760000Y-143810000D02*
X219760000Y-141570000D01*
X219640000Y-143810000D02*
X219640000Y-141570000D01*
X219520000Y-143810000D02*
X219520000Y-141570000D01*
X216120000Y-143810000D02*
X220360000Y-143810000D01*
X216120000Y-141570000D02*
X216120000Y-143810000D01*
X215470000Y-142690000D02*
X216120000Y-142690000D01*
X222260000Y-139690000D02*
X221490000Y-139690000D01*
X221490000Y-141060000D02*
X221490000Y-138320000D01*
X221490000Y-138320000D02*
X214950000Y-138320000D01*
X214950000Y-141060000D02*
X221490000Y-141060000D01*
X214950000Y-138320000D02*
X214950000Y-141060000D01*
X214180000Y-139690000D02*
X214950000Y-139690000D01*
X214090000Y-136440000D02*
X214860000Y-136440000D01*
X214860000Y-135070000D02*
X214860000Y-137810000D01*
X214860000Y-137810000D02*
X221400000Y-137810000D01*
X221400000Y-135070000D02*
X214860000Y-135070000D01*
X221400000Y-137810000D02*
X221400000Y-135070000D01*
X222170000Y-136440000D02*
X221400000Y-136440000D01*
X214090000Y-133190000D02*
X214860000Y-133190000D01*
X214860000Y-131820000D02*
X214860000Y-134560000D01*
X214860000Y-134560000D02*
X221400000Y-134560000D01*
X221400000Y-131820000D02*
X214860000Y-131820000D01*
X221400000Y-134560000D02*
X221400000Y-131820000D01*
X222170000Y-133190000D02*
X221400000Y-133190000D01*
X173510000Y-139690000D02*
X172740000Y-139690000D01*
X172740000Y-141060000D02*
X172740000Y-138320000D01*
X172740000Y-138320000D02*
X166200000Y-138320000D01*
X166200000Y-141060000D02*
X172740000Y-141060000D01*
X166200000Y-138320000D02*
X166200000Y-141060000D01*
X165430000Y-139690000D02*
X166200000Y-139690000D01*
X198010000Y-129690000D02*
X197240000Y-129690000D01*
X197240000Y-131060000D02*
X197240000Y-128320000D01*
X197240000Y-128320000D02*
X190700000Y-128320000D01*
X190700000Y-131060000D02*
X197240000Y-131060000D01*
X190700000Y-128320000D02*
X190700000Y-131060000D01*
X189930000Y-129690000D02*
X190700000Y-129690000D01*
X165590000Y-136440000D02*
X166360000Y-136440000D01*
X166360000Y-135070000D02*
X166360000Y-137810000D01*
X166360000Y-137810000D02*
X172900000Y-137810000D01*
X172900000Y-135070000D02*
X166360000Y-135070000D01*
X172900000Y-137810000D02*
X172900000Y-135070000D01*
X173670000Y-136440000D02*
X172900000Y-136440000D01*
X198010000Y-139690000D02*
X197240000Y-139690000D01*
X197240000Y-141060000D02*
X197240000Y-138320000D01*
X197240000Y-138320000D02*
X190700000Y-138320000D01*
X190700000Y-141060000D02*
X197240000Y-141060000D01*
X190700000Y-138320000D02*
X190700000Y-141060000D01*
X189930000Y-139690000D02*
X190700000Y-139690000D01*
X222010000Y-129690000D02*
X221240000Y-129690000D01*
X221240000Y-131060000D02*
X221240000Y-128320000D01*
X221240000Y-128320000D02*
X214700000Y-128320000D01*
X214700000Y-131060000D02*
X221240000Y-131060000D01*
X214700000Y-128320000D02*
X214700000Y-131060000D01*
X213930000Y-129690000D02*
X214700000Y-129690000D01*
X189840000Y-136440000D02*
X190610000Y-136440000D01*
X190610000Y-135070000D02*
X190610000Y-137810000D01*
X190610000Y-137810000D02*
X197150000Y-137810000D01*
X197150000Y-135070000D02*
X190610000Y-135070000D01*
X197150000Y-137810000D02*
X197150000Y-135070000D01*
X197920000Y-136440000D02*
X197150000Y-136440000D01*
X173760000Y-129940000D02*
X172990000Y-129940000D01*
X172990000Y-131310000D02*
X172990000Y-128570000D01*
X172990000Y-128570000D02*
X166450000Y-128570000D01*
X166450000Y-131310000D02*
X172990000Y-131310000D01*
X166450000Y-128570000D02*
X166450000Y-131310000D01*
X165680000Y-129940000D02*
X166450000Y-129940000D01*
X165590000Y-133190000D02*
X166360000Y-133190000D01*
X166360000Y-131820000D02*
X166360000Y-134560000D01*
X166360000Y-134560000D02*
X172900000Y-134560000D01*
X172900000Y-131820000D02*
X166360000Y-131820000D01*
X172900000Y-134560000D02*
X172900000Y-131820000D01*
X173670000Y-133190000D02*
X172900000Y-133190000D01*
X172260000Y-142690000D02*
X171610000Y-142690000D01*
X171610000Y-143810000D02*
X171610000Y-141570000D01*
X171610000Y-141570000D02*
X167370000Y-141570000D01*
X171010000Y-143810000D02*
X171010000Y-141570000D01*
X170890000Y-143810000D02*
X170890000Y-141570000D01*
X170770000Y-143810000D02*
X170770000Y-141570000D01*
X167370000Y-143810000D02*
X171610000Y-143810000D01*
X167370000Y-141570000D02*
X167370000Y-143810000D01*
X166720000Y-142690000D02*
X167370000Y-142690000D01*
D13*
X214870000Y-117250000D02*
X221230000Y-117250000D01*
X221230000Y-126850000D02*
X214870000Y-126850000D01*
D16*
X213300000Y-117200000D02*
G75*
G03*
X213300000Y-117200000I-100000J0D01*
G01*
D13*
X190870000Y-117250000D02*
X197230000Y-117250000D01*
X197230000Y-126850000D02*
X190870000Y-126850000D01*
D16*
X189300000Y-117200000D02*
G75*
G03*
X189300000Y-117200000I-100000J0D01*
G01*
D13*
X166370000Y-117250000D02*
X172730000Y-117250000D01*
X172730000Y-126850000D02*
X166370000Y-126850000D01*
D16*
X164800000Y-117200000D02*
G75*
G03*
X164800000Y-117200000I-100000J0D01*
G01*
D12*
X241340000Y-195670000D02*
X219140000Y-195670000D01*
X241340000Y-185870000D02*
X241340000Y-195670000D01*
X219140000Y-195670000D02*
X219140000Y-185870000D01*
X219140000Y-185870000D02*
X241340000Y-185870000D01*
D15*
X256370000Y-152370000D02*
X256370000Y-153620000D01*
X256670000Y-152670000D02*
X256670000Y-172710000D01*
X256670000Y-172710000D02*
X266550000Y-172710000D01*
X257620000Y-152370000D02*
X256370000Y-152370000D01*
X266550000Y-152670000D02*
X256670000Y-152670000D01*
X266550000Y-172710000D02*
X266550000Y-152670000D01*
D13*
X130940000Y-193410000D02*
X153940000Y-193410000D01*
X153940000Y-193410000D02*
X153940000Y-155410000D01*
X130940000Y-155410000D02*
X130940000Y-193410000D01*
X153940000Y-155410000D02*
X130940000Y-155410000D01*
D16*
X139340000Y-194210000D02*
G75*
G03*
X139340000Y-194210000I-100000J0D01*
G01*
M02*
