G04 #@! TF.GenerationSoftware,KiCad,Pcbnew,7.0.5*
G04 #@! TF.CreationDate,2023-07-24T21:00:45+01:00*
G04 #@! TF.ProjectId,ECS-Prototype,4543532d-5072-46f7-946f-747970652e6b,1.4*
G04 #@! TF.SameCoordinates,Original*
G04 #@! TF.FileFunction,Legend,Bot*
G04 #@! TF.FilePolarity,Positive*
%FSLAX46Y46*%
G04 Gerber Fmt 4.6, Leading zero omitted, Abs format (unit mm)*
G04 Created by KiCad (PCBNEW 7.0.5) date 2023-07-24 21:00:45*
%MOMM*%
%LPD*%
G01*
G04 APERTURE LIST*
%ADD10C,0.100000*%
G04 APERTURE END LIST*
D10*
X226290000Y-140940000D02*
X226290000Y-55840000D01*
X310790000Y-140940000D02*
X226290000Y-140940000D01*
X310790000Y-140940000D02*
X310770000Y-66540000D01*
X302290000Y-66740000D02*
X310770000Y-66740000D01*
X284490000Y-61140000D02*
X302290000Y-61140000D01*
X302290000Y-61140000D02*
X302290000Y-66740000D01*
X226290000Y-55740000D02*
X284490000Y-55740000D01*
X284490000Y-55740000D02*
X284490000Y-61140000D01*
X306565000Y-135640000D02*
X271165000Y-135640000D01*
X271165000Y-135640000D02*
X271165000Y-130050000D01*
X271165000Y-130050000D02*
X306565000Y-130050000D01*
X306565000Y-130050000D02*
X306565000Y-135640000D01*
X267390000Y-135630000D02*
X244090000Y-135630000D01*
X244090000Y-135630000D02*
X244090000Y-130040000D01*
X244090000Y-130040000D02*
X267390000Y-130040000D01*
X267390000Y-130040000D02*
X267390000Y-135630000D01*
X236740000Y-121060000D02*
X227240000Y-121060000D01*
X227240000Y-121060000D02*
X227240000Y-116940000D01*
X227240000Y-116940000D02*
X236740000Y-116940000D01*
X236740000Y-116940000D02*
X236740000Y-121060000D01*
X266240000Y-77210000D02*
X256740000Y-77210000D01*
X256740000Y-77210000D02*
X256740000Y-73090000D01*
X256740000Y-73090000D02*
X266240000Y-73090000D01*
X266240000Y-73090000D02*
X266240000Y-77210000D01*
X278440000Y-64390000D02*
X243040000Y-64390000D01*
X243040000Y-64390000D02*
X243040000Y-59390000D01*
X243040000Y-59390000D02*
X278440000Y-59390000D01*
X278440000Y-59390000D02*
X278440000Y-64390000D01*
M02*
